<?xml version="1.0" encoding="utf-8"?>
<!-- Generator: Adobe Illustrator 22.0.0, SVG Export Plug-In . SVG Version: 6.00 Build 0)  -->
<svg version="1.1" id="Layer_1" xmlns="http://www.w3.org/2000/svg" xmlns:xlink="http://www.w3.org/1999/xlink" x="0px" y="0px"
	 viewBox="0 0 180 180" style="enable-background:new 0 0 180 180;" xml:space="preserve">
<style type="text/css">
	.st0{display:none;}
	.st1{display:inline;}
	.st2{fill:#4998D3;}
	.st3{fill:#FFFFFF;}
	.st4{fill:none;stroke:#FFFFFF;stroke-width:2;stroke-miterlimit:10;}
	.st5{fill:url(#SVGID_1_);}
	.st6{fill:url(#SVGID_2_);}
	.st7{fill:url(#SVGID_3_);}
</style>
<g id="Layer_1_1_" class="st0">
	<g id="background" class="st1">
		<rect class="st2" width="180" height="180"/>
	</g>
	<g id="calendar" class="st1">
		<path class="st3" d="M162.2,63.5v80.7c0,6.1-4.9,11-11,11H28.8c-6.1,0-11-4.9-11-11V63.5H162.2z"/>
		<path class="st3" d="M162.2,45.9v10.9H17.8V45.9c0-6.1,4.9-11,11-11h7.3v-5.5c0-2.3,0.9-4.5,2.5-6c1.5-1.5,3.7-2.5,6-2.5
			c4.7,0,8.5,3.8,8.5,8.5v5.5h73.8v-5.5c0-2.3,0.9-4.5,2.5-6c1.5-1.5,3.7-2.5,6-2.5c4.7,0,8.5,3.8,8.5,8.5v5.5h7.3
			C157.3,34.9,162.2,39.8,162.2,45.9z"/>
	</g>
	<g id="analytics" class="st1">
		<g>
			<polygon class="st3" points="161.8,155.5 161.8,162.6 18.2,162.6 18.2,18 25.3,18 25.3,155.5 			"/>
		</g>
		<circle class="st3" cx="40.3" cy="145.1" r="5"/>
		<circle class="st3" cx="59.7" cy="108.7" r="5"/>
		<circle class="st3" cx="79.1" cy="135.8" r="5"/>
		<circle class="st3" cx="98.5" cy="76.5" r="5"/>
		<circle class="st3" cx="117.9" cy="108.7" r="5"/>
		<circle class="st3" cx="137.3" cy="61.6" r="5"/>
		<circle class="st3" cx="156.8" cy="40.6" r="5"/>
		<polyline class="st4" points="40.3,145.1 40.3,145.1 59.7,108.7 79.1,135.8 98.5,76.5 117.9,108.7 137.3,61.6 156.7,40.6 		"/>
	</g>
	<g id="employees" class="st1">
		<path class="st3" d="M91.5,36.2c-13,0-23.6,10.5-23.6,23.6c0,13,10.5,23.6,23.6,23.6c13,0,23.6-10.6,23.6-23.6
			C115.1,46.7,104.5,36.2,91.5,36.2z M104.1,57.5c0-3.3-2.6-5.9-5.9-5.9c3.3,0,5.9-2.6,5.9-5.9c0,3.3,2.6,5.9,5.9,5.9
			C106.7,51.6,104.1,54.2,104.1,57.5z"/>
		<path class="st3" d="M115.9,45.7c0-3.3-2.6-5.9-5.9-5.9c3.3,0,5.9-2.6,5.9-5.9c0,3.3,2.6,5.9,5.9,5.9
			C118.5,39.8,115.9,42.4,115.9,45.7z"/>
		<path class="st3" d="M104.1,33.9c0-3.3-2.6-5.9-5.9-5.9c3.3,0,5.9-2.6,5.9-5.9c0,3.3,2.6,5.9,5.9,5.9
			C106.7,28,104.1,30.6,104.1,33.9z"/>
		<g>
			<polygon class="st3" points="90.5,138 96.5,131.9 90.5,94.9 84.4,132 			"/>
		</g>
		<polygon class="st3" points="60.8,97.2 60.8,97.2 60.8,97.1 		"/>
		<polygon class="st3" points="130.7,106.5 122.5,114.8 114.2,106.5 114.2,160.9 97.8,160.9 97.7,160.7 91.4,154.5 90.1,153.1 
			88.7,154.5 82.4,160.7 82.3,160.9 65.9,160.9 65.9,106.5 57.7,114.7 49.4,106.5 65.9,90 85.6,90 88.1,94.5 81.6,131.9 90.3,140.6 
			99,131.9 92.5,94.5 95,90 114.2,90 114.2,90 114.2,90 		"/>
		<polygon class="st3" points="131.2,124.4 131.2,124.4 131.2,124.4 		"/>
		<path class="st3" d="M146.9,82c-7.5,0-13.6,6.1-13.6,13.6s6.1,13.6,13.6,13.6c7.5,0,13.6-6.1,13.6-13.6
			C160.5,88.1,154.4,82,146.9,82z M154.2,94.3c0-1.9-1.5-3.4-3.4-3.4c1.9,0,3.4-1.5,3.4-3.4c0,1.9,1.5,3.4,3.4,3.4
			C155.7,90.9,154.2,92.5,154.2,94.3z"/>
		<path class="st3" d="M161,87.5c0-1.9-1.5-3.4-3.4-3.4c1.9,0,3.4-1.5,3.4-3.4c0,1.9,1.5,3.4,3.4,3.4C162.5,84.1,161,85.6,161,87.5z
			"/>
		<path class="st3" d="M154.2,80.7c0-1.9-1.5-3.4-3.4-3.4c1.9,0,3.4-1.5,3.4-3.4c0,1.9,1.5,3.4,3.4,3.4
			C155.7,77.3,154.2,78.8,154.2,80.7z"/>
		<g>
			<polygon class="st3" points="146.3,140.9 149.8,137.4 146.3,116 142.8,137.4 			"/>
		</g>
		<polygon class="st3" points="169.6,122.7 164.8,127.5 160,122.7 160,154.1 150.6,154.1 150.5,154 146.9,150.4 146.1,149.6 
			145.3,150.4 141.6,154 141.6,154.1 132.1,154.1 132.1,122.7 127.3,127.5 122.6,122.7 132.1,113.2 143.5,113.2 144.9,115.7 
			141.2,137.4 146.2,142.4 151.2,137.4 147.5,115.7 148.9,113.2 160,113.2 160,113.2 160,113.2 		"/>
		<path class="st3" d="M33.2,82c-7.5,0-13.6,6.1-13.6,13.6s6.1,13.6,13.6,13.6c7.5,0,13.6-6.1,13.6-13.6C46.8,88.1,40.7,82,33.2,82z
			 M40.5,94.3c0-1.9-1.5-3.4-3.4-3.4c1.9,0,3.4-1.5,3.4-3.4c0,1.9,1.5,3.4,3.4,3.4C42,90.9,40.5,92.5,40.5,94.3z"/>
		<path class="st3" d="M47.3,87.5c0-1.9-1.5-3.4-3.4-3.4c1.9,0,3.4-1.5,3.4-3.4c0,1.9,1.5,3.4,3.4,3.4
			C48.8,84.1,47.3,85.6,47.3,87.5z"/>
		<path class="st3" d="M40.5,80.7c0-1.9-1.5-3.4-3.4-3.4c1.9,0,3.4-1.5,3.4-3.4c0,1.9,1.5,3.4,3.4,3.4C42,77.3,40.5,78.8,40.5,80.7z
			"/>
		<g>
			<polygon class="st3" points="33.8,140.9 30.3,137.4 33.8,116 37.3,137.4 			"/>
		</g>
		<polygon class="st3" points="10.6,122.7 15.3,127.5 20.1,122.7 20.1,154.1 29.6,154.1 29.7,154 33.3,150.4 34.1,149.6 34.9,150.4 
			38.5,154 38.6,154.1 48,154.1 48,122.7 52.8,127.5 57.6,122.7 48,113.2 36.7,113.2 35.2,115.7 38.9,137.4 33.9,142.4 28.9,137.4 
			32.6,115.7 31.2,113.2 20.1,113.2 20.1,113.2 20.1,113.2 		"/>
	</g>
	<g id="leads" class="st1">
		<path class="st3" d="M135.9,27.4h-18.5c0.4,1.2,0.6,2.5,0.6,3.9c0,7.1-5.8,12.9-12.9,12.9H74.7c-7.1,0-12.9-5.8-12.9-12.9
			c0-1.4,0.2-2.7,0.6-3.9H45.1c-7.6,0-13.7,6.1-13.7,13.7v115.1c0,7.6,6.1,13.7,13.7,13.7h90.9c7.6,0,13.7-6.1,13.7-13.7V41.1
			C149.6,33.5,143.5,27.4,135.9,27.4z M139.8,146c0,6.3-5.1,11.4-11.4,11.4H52.7c-6.3,0-11.4-5.1-11.4-11.4V67.4
			c0-6.3,5.1-11.4,11.4-11.4h75.7c6.3,0,11.4,5.1,11.4,11.4L139.8,146L139.8,146z"/>
		<path class="st3" d="M65.2,81.6c0,1.6-1.3,3-3,3h-8c-1.6,0-3-1.3-3-3v-8c0-1.6,1.3-3,3-3h8c1.6,0,3,1.3,3,3V81.6z"/>
		<path class="st3" d="M128.5,81.6c0,1.6-1.3,3-3,3H73.1c-1.6,0-3-1.3-3-3v-8c0-1.6,1.3-3,3-3h52.4c1.6,0,3,1.3,3,3L128.5,81.6
			L128.5,81.6z"/>
		<path class="st3" d="M65.2,100.7c0,1.6-1.3,3-3,3h-8c-1.6,0-3-1.3-3-3v-8c0-1.6,1.3-3,3-3h8c1.6,0,3,1.3,3,3V100.7z"/>
		<path class="st3" d="M128.5,100.7c0,1.6-1.3,3-3,3H73.1c-1.6,0-3-1.3-3-3v-8c0-1.6,1.3-3,3-3h52.4c1.6,0,3,1.3,3,3L128.5,100.7
			L128.5,100.7z"/>
		<path class="st3" d="M65.2,119.9c0,1.6-1.3,3-3,3h-8c-1.6,0-3-1.3-3-3v-8c0-1.6,1.3-3,3-3h8c1.6,0,3,1.3,3,3V119.9z"/>
		<path class="st3" d="M128.5,119.9c0,1.6-1.3,3-3,3H73.1c-1.6,0-3-1.3-3-3v-8c0-1.6,1.3-3,3-3h52.4c1.6,0,3,1.3,3,3L128.5,119.9
			L128.5,119.9z"/>
		<path class="st3" d="M65.2,139c0,1.6-1.3,3-3,3h-8c-1.6,0-3-1.3-3-3v-8c0-1.6,1.3-3,3-3h8c1.6,0,3,1.3,3,3V139z"/>
		<path class="st3" d="M128.5,139c0,1.6-1.3,3-3,3H73.1c-1.6,0-3-1.3-3-3v-8c0-1.6,1.3-3,3-3h52.4c1.6,0,3,1.3,3,3L128.5,139
			L128.5,139z"/>
		<g>
			<path class="st3" d="M115.1,27.4c-1.6-4-5.4-6.8-9.9-6.8h-4.5c0-5.9-4.8-10.7-10.7-10.7c-5.9,0-10.7,4.8-10.7,10.7h-4.5
				c-4.5,0-8.4,2.8-9.9,6.8c-0.5,1.2-0.7,2.5-0.7,3.9c0,5.9,4.8,10.7,10.7,10.7h30.4c5.9,0,10.7-4.8,10.7-10.7
				C115.8,29.9,115.5,28.6,115.1,27.4z M89.9,19.3c-1.8,0-3.3-1.5-3.3-3.3s1.5-3.3,3.3-3.3c1.8,0,3.3,1.5,3.3,3.3
				C93.3,17.9,91.8,19.3,89.9,19.3z"/>
		</g>
	</g>
	<g id="projects" class="st1">
	</g>
</g>
<g id="Layer_2_1_">
	<g>
		<linearGradient id="SVGID_1_" gradientUnits="userSpaceOnUse" x1="91.662" y1="110.9605" x2="144.251" y2="110.9605">
			<stop  offset="0" style="stop-color:#FFFFFF"/>
			<stop  offset="0" style="stop-color:#008BE8"/>
			<stop  offset="1" style="stop-color:#0A669B"/>
			<stop  offset="1" style="stop-color:#000000"/>
		</linearGradient>
		<path class="st5" d="M144.2,91.7v44.1c0,4.7-3.8,8.5-8.5,8.5H91.7v-17.4c1.3,0.6,2.7,0.9,4.2,0.9c5.4,0,9.8-4.4,9.8-9.8
			c0-5.4-4.4-9.8-9.8-9.8c-1.5,0-2.9,0.3-4.2,0.9V91.7h24.6l-2.9-2.9c-1.2-1.2-1.9-2.9-1.9-4.6c0-3.6,2.9-6.5,6.5-6.5
			c3.6,0,6.5,2.9,6.5,6.5c0,1.8-0.7,3.4-1.9,4.6l-2.9,2.9L144.2,91.7L144.2,91.7L144.2,91.7z"/>
		<linearGradient id="SVGID_2_" gradientUnits="userSpaceOnUse" x1="35.75" y1="117.956" x2="102.329" y2="117.956">
			<stop  offset="0" style="stop-color:#FFFFFF"/>
			<stop  offset="0" style="stop-color:#008BE8"/>
			<stop  offset="1" style="stop-color:#0A669B"/>
			<stop  offset="1" style="stop-color:#000000"/>
		</linearGradient>
		<path class="st6" d="M102.3,118c0,3.6-2.9,6.5-6.5,6.5c-1.5,0-3-0.5-4.2-1.5c-0.2-0.1-0.3-0.3-0.5-0.4l-1.2-1.2l-1.7-1.7v24.6h-44
			c-4.7,0-8.5-3.8-8.5-8.5V91.7h17.4c-0.6,1.3-0.9,2.7-0.9,4.2c0,5.4,4.4,9.8,9.8,9.8c5.4,0,9.8-4.4,9.8-9.8c0-1.5-0.3-2.9-0.9-4.2
			h17.4v24.6l1.7-1.7l1.2-1.2c0.2-0.2,0.3-0.3,0.5-0.4c1.2-1,2.6-1.5,4.2-1.5C99.4,111.4,102.3,114.4,102.3,118z"/>
		<linearGradient id="SVGID_3_" gradientUnits="userSpaceOnUse" x1="35.75" y1="69.0395" x2="88.338" y2="69.0395">
			<stop  offset="0" style="stop-color:#FFFFFF"/>
			<stop  offset="0" style="stop-color:#008BE8"/>
			<stop  offset="1" style="stop-color:#0A669B"/>
			<stop  offset="1" style="stop-color:#000000"/>
		</linearGradient>
		<path class="st7" d="M74.3,62c0,5.4,4.4,9.8,9.8,9.8c1.5,0,2.9-0.3,4.2-0.9v17.4H63.7l2.9,2.9c1.2,1.2,1.9,2.9,1.9,4.6
			c0,3.6-2.9,6.5-6.5,6.5s-6.5-2.9-6.5-6.5c0-1.8,0.7-3.4,1.9-4.6l2.9-2.9H35.8v-44c0-4.7,3.8-8.5,8.5-8.5h44v17.4
			c-1.3-0.6-2.7-0.9-4.2-0.9C78.8,52.2,74.3,56.6,74.3,62z"/>
	</g>
</g>
</svg>
