<?xml version="1.0" encoding="utf-8"?>
<!-- Generator: Adobe Illustrator 22.0.0, SVG Export Plug-In . SVG Version: 6.00 Build 0)  -->
<svg version="1.1" id="Layer_1" xmlns="http://www.w3.org/2000/svg" xmlns:xlink="http://www.w3.org/1999/xlink" x="0px" y="0px"
	 viewBox="0 0 1572.6 958" style="enable-background:new 0 0 1572.6 958;" xml:space="preserve">
<style type="text/css">
	.st0{display:none;}
	.st1{display:inline;fill:#488DCB;}
	.st2{display:inline;}
	.st3{fill:#488DCB;}
	.st4{display:inline;fill:#FFFFFF;}
	.st5{fill:url(#SVGID_1_);}
	.st6{fill:url(#SVGID_2_);}
	.st7{fill:url(#SVGID_3_);}
	.st8{fill:url(#SVGID_4_);}
	.st9{fill:url(#SVGID_5_);}
	.st10{fill:url(#SVGID_6_);}
	.st11{fill:url(#SVGID_7_);}
	.st12{fill:url(#SVGID_8_);}
	.st13{fill:url(#SVGID_9_);}
	.st14{fill:#FFFFFF;}
</style>
<g id="Layer_5" class="st0">
	<rect x="-183.8" y="-81" class="st1" width="1920" height="1080"/>
</g>
<g id="Layer_1_1_" class="st0">
	<g class="st2">
		<path class="st3" d="M739.4,434.9l-63.9,148.6h-39.1c-0.8-6.3-3.4-22.4-7.7-48.2c-4.3-25.8-7.3-43.7-8.9-53.6
			c-3.2-24.5-5.3-40.1-6.5-46.8l-34.9,171.1h-55.1l62.8-268.8h55.6c0.4,4,1.4,10.2,3,18.6c1.6,8.5,3.3,18,5,28.4
			c1.8,10.5,3.6,21.8,5.6,34c2,12.2,3.7,24,5.3,35.2c1.6,11.2,3,21.6,4.1,31.1c1.2,9.5,2.2,17,3,22.5c1.6-5.1,4.4-12.4,8.6-21.9
			s8.6-19.9,13.3-31.4c4.7-11.4,9.9-23.2,15.4-35.2c5.5-12,10.7-23.4,15.7-34c4.9-10.7,9.3-20.2,13-28.7c3.7-8.5,6.6-14.7,8.6-18.6
			h55.6l-13,268.8h-57.4c0.4-4.3,0.8-10.8,1.2-19.5c0.4-8.7,1.1-18.4,2.1-29.3c1-10.8,1.8-22.2,2.4-34c0.6-11.8,1.3-23.3,2.1-34.3
			c0.8-11,1.6-21.4,2.4-31.1C738.5,448,739,440.4,739.4,434.9z"/>
		<path class="st3" d="M831.6,652.6c17.8,5.9,34.9,8.9,51.5,8.9c11.8,0,19.5-1.6,23.1-4.7c7.5-6.7,12.6-18,15.4-33.7l7.1-45h-1.2
			c-20.9,20.9-41.4,31.4-61.6,31.4c-20.1,0-33.4-6-39.7-18.1c-6.3-12-7.9-30.5-4.7-55.4l20.1-140.9h55.6L879,522.4
			c-1.6,16.6-1.8,26.6-0.6,30.2c2.8,5.9,8.3,8.9,16.6,8.9c9.5,0,20.3-5.7,32.6-17.2c2.8-2.4,4.9-4.1,6.5-5.3l20.1-143.9h55.1
			l-32,226.7c-4,27.6-13,48-27.2,61.3c-14.2,13.2-35.1,19.8-62.8,19.8c-19.3,0-41.4-4.1-66.3-12.4L831.6,652.6z"/>
		<path class="st3" d="M1160.1,397.5l-5.4,40.5l-0.1,0.6c-3.2-0.4-8.6-1.8-16.3-4.1c-7.7-2.4-15.9-3.5-24.6-3.5
			c-16.6,0-25.9,5.5-27.8,16.6c-0.8,5.1,0.5,9.8,3.9,13.9c3.3,4.1,7.6,8.3,12.7,12.4c5.1,4.1,10.9,8.5,17.2,13
			c5.5,3.9,10.5,8.2,15.1,12.9l0,0c0.7,0.7,1.4,1.4,2.1,2.2c11.8,12.6,16.4,27.6,13.6,45c-1.6,17.4-9.1,32.2-22.5,44.4
			c-14.2,12.2-33.6,18.4-58,18.4c-16.2,0-28.4-1.6-36.7-4.7c-7.1-2.6-12.9-4.8-17.4-6.8l5.5-41.7c1.2,0.4,3.3,1.4,6.5,3
			c3.2,1.6,6.9,3.2,11.2,4.7c11.1,3.6,20.3,5.3,27.8,5.3c7.5,0,13.5-1.3,18.1-3.8c4.5-2.6,7.3-7.1,8.3-13.6c1-6.5-0.1-12-3.2-16.6
			c-3.2-4.5-7.2-9-12.1-13.3c-4.9-4.3-10.4-8.8-16.3-13.3c-5.9-4.5-11.2-9.8-16-15.7c-1.6-1.9-3-3.8-4.3-5.7c-1-1.4-1.8-2.9-2.7-4.4
			c-5.8-10.6-7.8-22.5-6.1-35.5c1.8-13.3,6.9-24.5,15.3-33.7l0,0c2.6-2.9,5.5-5.5,8.7-8c13.6-10.5,31.9-15.7,54.8-15.7
			C1128.1,390.1,1144.4,392.6,1160.1,397.5z"/>
		<path class="st3" d="M1307.6,394.7l-4.7,40.3h-45.6l-14.2,100.6c-1.6,9.1-1.6,15.8,0,20.1c1.6,4.3,5.6,6.5,12.1,6.5
			s12.1-0.9,16.9-2.7c4.7-1.8,7.9-2.9,9.5-3.3v39.1c-1.6,0.4-3.9,1.4-7.1,3c-3.2,1.6-6.7,3.2-10.7,4.7c-9.9,4.3-20.9,6.5-33.2,6.5
			c-18.9,0-31.8-5-38.5-15.1c-6.7-10.1-8.5-27.1-5.3-51.2l16-108.3h-22.5l5.3-40.3h22.5l7.1-50.3l56.2-8.9l-8.9,59.2L1307.6,394.7
			L1307.6,394.7z"/>
		<path class="st3" d="M1371,605.9h-55.6l28.7-208l57.4-7.8L1371,605.9z M1386.7,298.7c8.9,0,15.8,3.2,20.7,9.5
			c4.9,6.3,6.7,14.3,5.3,24c-1.4,9.7-5.4,17.6-12.1,23.7c-6.7,6.1-14.5,9.2-23.4,9.2s-15.9-3.1-21-9.2c-5.1-6.1-7.1-13.9-5.9-23.4
			c2-9.9,6.3-18,13-24.3C1370,301.9,1377.8,298.7,1386.7,298.7z"/>
		<path class="st3" d="M1560.1,439.3c-13-4.3-24.1-6.5-33.2-6.5c-13.8,0-24.7,5.4-32.6,16.3c-7.9,10.9-13.5,28.2-16.9,52.1
			c-3.4,23.9-2.4,40.7,3,50.3c5.3,9.7,13,14.5,23.1,14.5s18.8-1.5,26.3-4.4c7.5-3,12.6-4.8,15.4-5.6l7.7,34.3
			c-21.7,13-42.4,19.5-62.2,19.5c-56.8,0-80.3-35.7-70.4-107.2c9.9-75,44.8-112.5,104.8-112.5c17,0,32.8,2.8,47.4,8.3L1560.1,439.3z
			"/>
	</g>
</g>
<g id="Layer_7" class="st0">
	<circle class="st1" cx="200" cy="502.9" r="200"/>
	<path class="st1" d="M406.6,383.7c0-27.6-22.4-50-50-50c27.6,0,50-22.4,50-50c0,27.6,22.4,50,50,50
		C429,333.7,406.6,356.1,406.6,383.7z"/>
	<path class="st1" d="M306.6,283.7c0-27.6-22.4-50-50-50c27.6,0,50-22.4,50-50c0,27.6,22.4,50,50,50
		C329,233.7,306.6,256.1,306.6,283.7z"/>
	<path class="st4" d="M306.6,483.7c0-27.6-22.4-50-50-50c27.6,0,50-22.4,50-50c0,27.6,22.4,50,50,50
		C329,433.7,306.6,456.1,306.6,483.7z"/>
</g>
<g id="Layer_6">
	<g>
		<linearGradient id="SVGID_1_" gradientUnits="userSpaceOnUse" x1="523.364" y1="471.5545" x2="798.0521" y2="471.5545">
			<stop  offset="0" style="stop-color:#FFFFFF"/>
			<stop  offset="0" style="stop-color:#008BE8"/>
			<stop  offset="1" style="stop-color:#0A669B"/>
			<stop  offset="1" style="stop-color:#000000"/>
		</linearGradient>
		<path class="st5" d="M739.4,434.9l-63.9,148.6h-39.1c-0.8-6.3-3.4-22.4-7.7-48.2c-4.3-25.8-7.3-43.7-8.9-53.6
			c-3.2-24.5-5.3-40.1-6.5-46.8l-34.9,171.1h-55.1l62.8-268.8h55.6c0.4,4,1.4,10.2,3,18.6c1.6,8.5,3.3,18,5,28.4
			c1.8,10.5,3.6,21.8,5.6,34c2,12.2,3.7,24,5.3,35.2c1.6,11.2,3,21.6,4.1,31.1c1.2,9.5,2.2,17,3,22.5c1.6-5.1,4.4-12.4,8.6-21.9
			s8.6-19.9,13.3-31.4c4.7-11.4,9.9-23.2,15.4-35.2c5.5-12,10.7-23.4,15.7-34c4.9-10.7,9.3-20.2,13-28.7c3.7-8.5,6.6-14.7,8.6-18.6
			h55.6l-13,268.8h-57.4c0.4-4.3,0.8-10.8,1.2-19.5c0.4-8.7,1.1-18.4,2.1-29.3c1-10.8,1.8-22.2,2.4-34c0.6-11.8,1.3-23.3,2.1-34.3
			c0.8-11,1.6-21.4,2.4-31.1C738.5,448,739,440.4,739.4,434.9z"/>
		<linearGradient id="SVGID_2_" gradientUnits="userSpaceOnUse" x1="819.9801" y1="549.0399" x2="1009.226" y2="549.0399">
			<stop  offset="0" style="stop-color:#FFFFFF"/>
			<stop  offset="0" style="stop-color:#008BE8"/>
			<stop  offset="1" style="stop-color:#0A669B"/>
			<stop  offset="1" style="stop-color:#000000"/>
		</linearGradient>
		<path class="st6" d="M831.6,652.6c17.8,5.9,34.9,8.9,51.5,8.9c11.8,0,19.5-1.6,23.1-4.7c7.5-6.7,12.6-18,15.4-33.7l7.1-45h-1.2
			c-20.9,20.9-41.4,31.4-61.6,31.4c-20.1,0-33.4-6-39.7-18.1c-6.3-12-7.9-30.5-4.7-55.4l20.1-140.9h55.6L879,522.4
			c-1.6,16.6-1.8,26.6-0.6,30.2c2.8,5.9,8.3,8.9,16.6,8.9c9.5,0,20.3-5.7,32.6-17.2c2.8-2.4,4.9-4.1,6.5-5.3l20.1-143.9h55.1
			l-32,226.7c-4,27.6-13,48-27.2,61.3c-14.2,13.2-35.1,19.8-62.8,19.8c-19.3,0-41.4-4.1-66.3-12.4L831.6,652.6z"/>
		<linearGradient id="SVGID_3_" gradientUnits="userSpaceOnUse" x1="1015.833" y1="499.9536" x2="1160.073" y2="499.9536">
			<stop  offset="0" style="stop-color:#FFFFFF"/>
			<stop  offset="0" style="stop-color:#008BE8"/>
			<stop  offset="1" style="stop-color:#0A669B"/>
			<stop  offset="1" style="stop-color:#000000"/>
		</linearGradient>
		<path class="st7" d="M1160.1,397.5l-5.4,40.5l-0.1,0.6c-3.2-0.4-8.6-1.8-16.3-4.1c-7.7-2.4-15.9-3.5-24.6-3.5
			c-16.6,0-25.9,5.5-27.8,16.6c-0.8,5.1,0.5,9.8,3.9,13.9c3.3,4.1,7.6,8.3,12.7,12.4c5.1,4.1,10.9,8.5,17.2,13
			c5.5,3.9,10.5,8.2,15.1,12.9l0,0c0.7,0.7,1.4,1.4,2.1,2.2c11.8,12.6,16.4,27.6,13.6,45c-1.6,17.4-9.1,32.2-22.5,44.4
			c-14.2,12.2-33.6,18.4-58,18.4c-16.2,0-28.4-1.6-36.7-4.7c-7.1-2.6-12.9-4.8-17.4-6.8l5.5-41.7c1.2,0.4,3.3,1.4,6.5,3
			c3.2,1.6,6.9,3.2,11.2,4.7c11.1,3.6,20.3,5.3,27.8,5.3c7.5,0,13.5-1.3,18.1-3.8c4.5-2.6,7.3-7.1,8.3-13.6c1-6.5-0.1-12-3.2-16.6
			c-3.2-4.5-7.2-9-12.1-13.3c-4.9-4.3-10.4-8.8-16.3-13.3c-5.9-4.5-11.2-9.8-16-15.7c-1.6-1.9-3-3.8-4.3-5.7c-1-1.4-1.8-2.9-2.7-4.4
			c-5.8-10.6-7.8-22.5-6.1-35.5c1.8-13.3,6.9-24.5,15.3-33.7l0,0c2.6-2.9,5.5-5.5,8.7-8c13.6-10.5,31.9-15.7,54.8-15.7
			C1128.1,390.1,1144.4,392.6,1160.1,397.5z"/>
		<linearGradient id="SVGID_4_" gradientUnits="userSpaceOnUse" x1="1180.313" y1="472.5071" x2="1307.5909" y2="472.5071">
			<stop  offset="0" style="stop-color:#FFFFFF"/>
			<stop  offset="0" style="stop-color:#008BE8"/>
			<stop  offset="1" style="stop-color:#0A669B"/>
			<stop  offset="1" style="stop-color:#000000"/>
		</linearGradient>
		<path class="st8" d="M1307.6,394.7l-4.7,40.3h-45.6l-14.2,100.6c-1.6,9.1-1.6,15.8,0,20.1c1.6,4.3,5.6,6.5,12.1,6.5
			s12.1-0.9,16.9-2.7c4.7-1.8,7.9-2.9,9.5-3.3v39.1c-1.6,0.4-3.9,1.4-7.1,3c-3.2,1.6-6.7,3.2-10.7,4.7c-9.9,4.3-20.9,6.5-33.2,6.5
			c-18.9,0-31.8-5-38.5-15.1c-6.7-10.1-8.5-27.1-5.3-51.2l16-108.3h-22.5l5.3-40.3h22.5l7.1-50.3l56.2-8.9l-8.9,59.2L1307.6,394.7
			L1307.6,394.7z"/>
		<linearGradient id="SVGID_5_" gradientUnits="userSpaceOnUse" x1="1315.3881" y1="452.314" x2="1413.2235" y2="452.314">
			<stop  offset="0" style="stop-color:#FFFFFF"/>
			<stop  offset="0" style="stop-color:#008BE8"/>
			<stop  offset="1" style="stop-color:#0A669B"/>
			<stop  offset="1" style="stop-color:#000000"/>
		</linearGradient>
		<path class="st9" d="M1371,605.9h-55.6l28.7-208l57.4-7.8L1371,605.9z M1386.7,298.7c8.9,0,15.8,3.2,20.7,9.5
			c4.9,6.3,6.7,14.3,5.3,24c-1.4,9.7-5.4,17.6-12.1,23.7c-6.7,6.1-14.5,9.2-23.4,9.2s-15.9-3.1-21-9.2c-5.1-6.1-7.1-13.9-5.9-23.4
			c2-9.9,6.3-18,13-24.3C1370,301.9,1377.8,298.7,1386.7,298.7z"/>
		<linearGradient id="SVGID_6_" gradientUnits="userSpaceOnUse" x1="1418.2239" y1="499.9505" x2="1572.558" y2="499.9505">
			<stop  offset="0" style="stop-color:#FFFFFF"/>
			<stop  offset="0" style="stop-color:#008BE8"/>
			<stop  offset="1" style="stop-color:#0A669B"/>
			<stop  offset="1" style="stop-color:#000000"/>
		</linearGradient>
		<path class="st10" d="M1560.1,439.3c-13-4.3-24.1-6.5-33.2-6.5c-13.8,0-24.7,5.4-32.6,16.3c-7.9,10.9-13.5,28.2-16.9,52.1
			c-3.4,23.9-2.4,40.7,3,50.3c5.3,9.7,13,14.5,23.1,14.5s18.8-1.5,26.3-4.4c7.5-3,12.6-4.8,15.4-5.6l7.7,34.3
			c-21.7,13-42.4,19.5-62.2,19.5c-56.8,0-80.3-35.7-70.4-107.2c9.9-75,44.8-112.5,104.8-112.5c17,0,32.8,2.8,47.4,8.3L1560.1,439.3z
			"/>
	</g>
</g>
<g id="Layer_4">
	<linearGradient id="SVGID_7_" gradientUnits="userSpaceOnUse" x1="6.593" y1="499.9536" x2="406.593" y2="499.9536">
		<stop  offset="0" style="stop-color:#FFFFFF"/>
		<stop  offset="0" style="stop-color:#008BE8"/>
		<stop  offset="1" style="stop-color:#0A669B"/>
		<stop  offset="1" style="stop-color:#000000"/>
	</linearGradient>
	<circle class="st11" cx="206.6" cy="500" r="200"/>
	<linearGradient id="SVGID_8_" gradientUnits="userSpaceOnUse" x1="356.593" y1="333.743" x2="456.593" y2="333.743">
		<stop  offset="0" style="stop-color:#FFFFFF"/>
		<stop  offset="0" style="stop-color:#008BE8"/>
		<stop  offset="1" style="stop-color:#0A669B"/>
		<stop  offset="1" style="stop-color:#000000"/>
	</linearGradient>
	<path class="st12" d="M406.6,383.7c0-27.6-22.4-50-50-50c27.6,0,50-22.4,50-50c0,27.6,22.4,50,50,50
		C429,333.7,406.6,356.1,406.6,383.7z"/>
	<linearGradient id="SVGID_9_" gradientUnits="userSpaceOnUse" x1="256.593" y1="233.743" x2="356.593" y2="233.743">
		<stop  offset="0" style="stop-color:#FFFFFF"/>
		<stop  offset="0" style="stop-color:#008BE8"/>
		<stop  offset="1" style="stop-color:#0A669B"/>
		<stop  offset="1" style="stop-color:#000000"/>
	</linearGradient>
	<path class="st13" d="M306.6,283.7c0-27.6-22.4-50-50-50c27.6,0,50-22.4,50-50c0,27.6,22.4,50,50,50
		C329,233.7,306.6,256.1,306.6,283.7z"/>
	<path class="st14" d="M256.6,440.1c0-27.6-22.4-50-50-50c27.6,0,50-22.4,50-50c0,27.6,22.4,50,50,50
		C279,390.1,256.6,412.5,256.6,440.1z"/>
</g>
<g id="Layer_2_1_" class="st0">
	<path class="st1" d="M409.7,514.7c-14.9,63.8-55.9,114.6-109.2,143.8l74.9-321.1C410.3,387.2,424.6,450.9,409.7,514.7z"/>
	<path class="st1" d="M271.3,257c21.3,7.9,40.8,18.8,58.1,32.1l-91.5,392.3c-21.4,4.3-43.7,5.5-66.3,3.2L271.3,257z"/>
	<path class="st1" d="M150.6,247.5c21.4-4.3,43.7-5.5,66.3-3.1l-99.7,427.6c-21.3-7.9-40.8-18.8-58.1-32.1L150.6,247.5z"/>
	<path class="st1" d="M87.9,270.4L13,591.5C-21.8,541.8-36.1,478-21.2,414.2C-6.4,350.4,34.7,299.6,87.9,270.4z"/>
</g>
<g id="Layer_3" class="st0">
	<path class="st1" d="M359.7,295.1L301,546.5c-27.3-38.9-38.5-88.9-26.9-138.8C285.8,357.8,318,318,359.7,295.1z"/>
	<path class="st1" d="M408.7,277.2c16.8-3.4,34.2-4.3,51.9-2.5l-78.1,334.8c-16.7-6.2-31.9-14.7-45.5-25.2L408.7,277.2z"/>
	<path class="st1" d="M503.2,284.6c16.7,6.2,31.9,14.7,45.5,25.2l-71.6,307.1c-16.8,3.4-34.2,4.3-51.9,2.5L503.2,284.6z"/>
</g>
</svg>
