<?xml version="1.0" encoding="utf-8"?>
<!-- Generator: Adobe Illustrator 16.0.0, SVG Export Plug-In . SVG Version: 6.00 Build 0)  -->
<!DOCTYPE svg PUBLIC "-//W3C//DTD SVG 1.1//EN" "http://www.w3.org/Graphics/SVG/1.1/DTD/svg11.dtd">
<svg version="1.1" id="Layer_1" xmlns="http://www.w3.org/2000/svg" xmlns:xlink="http://www.w3.org/1999/xlink" x="0px" y="0px"
	 width="180px" height="180px" viewBox="0 0 180 180" enable-background="new 0 0 180 180" xml:space="preserve">
<g id="Layer_1_1_" display="none">
	<g id="background" display="inline">
		<rect fill="#4998D3" width="180" height="180"/>
	</g>
	<g id="calendar" display="inline">
		<path fill="#FFFFFF" d="M162.242,63.522v80.658c0,6.092-4.926,11.02-11.018,11.02H28.774c-6.091,0-11.016-4.928-11.016-11.02
			V63.522H162.242z"/>
		<path fill="#FFFFFF" d="M162.242,45.899v10.89H17.758v-10.89c0-6.083,4.925-11.017,11.016-11.017h7.342v-5.509
			c0-2.349,0.946-4.469,2.484-6.006c1.537-1.529,3.667-2.484,6.006-2.484c4.689,0,8.491,3.802,8.491,8.491v5.509h73.805v-5.509
			c0-2.349,0.945-4.469,2.484-6.006c1.535-1.529,3.663-2.484,6.006-2.484c4.688,0,8.489,3.802,8.489,8.491v5.509h7.343
			C157.316,34.883,162.242,39.816,162.242,45.899z"/>
	</g>
	<g id="analytics" display="inline">
		<g>
			<polygon fill="#FFFFFF" points="161.828,155.54 161.828,162.596 18.242,162.596 18.242,17.985 25.313,17.985 25.313,155.54 			
				"/>
		</g>
		<circle fill="#FFFFFF" cx="40.286" cy="145.132" r="5.026"/>
		<circle fill="#FFFFFF" cx="59.697" cy="108.697" r="5.026"/>
		<circle fill="#FFFFFF" cx="79.107" cy="135.835" r="5.026"/>
		<circle fill="#FFFFFF" cx="98.518" cy="76.536" r="5.026"/>
		<circle fill="#FFFFFF" cx="117.928" cy="108.697" r="5.026"/>
		<circle fill="#FFFFFF" cx="137.339" cy="61.648" r="5.026"/>
		<circle fill="#FFFFFF" cx="156.75" cy="40.599" r="5.026"/>
		<polyline fill="none" stroke="#FFFFFF" stroke-width="2" stroke-miterlimit="10" points="40.286,145.132 40.286,145.132 
			59.696,108.697 79.107,135.835 98.518,76.536 117.928,108.697 137.338,61.648 156.749,40.599 		"/>
	</g>
	<g id="employees" display="inline">
		<path fill="#FFFFFF" d="M91.529,36.153c-13.011,0-23.559,10.548-23.559,23.56c0,13.009,10.547,23.559,23.559,23.559
			c13.013,0,23.561-10.55,23.561-23.559C115.09,46.701,104.542,36.153,91.529,36.153z M104.086,57.457
			c0-3.253-2.638-5.89-5.891-5.89c3.253,0,5.891-2.638,5.891-5.89c0,3.252,2.637,5.89,5.891,5.89
			C106.723,51.567,104.086,54.204,104.086,57.457z"/>
		<path fill="#FFFFFF" d="M115.866,45.678c0-3.254-2.638-5.889-5.892-5.889c3.254,0,5.892-2.638,5.892-5.89
			c0,3.252,2.637,5.89,5.89,5.89C118.503,39.789,115.866,42.424,115.866,45.678z"/>
		<path fill="#FFFFFF" d="M104.086,33.898c0-3.254-2.638-5.89-5.891-5.89c3.253,0,5.891-2.638,5.891-5.891
			c0,3.252,2.639,5.891,5.891,5.891C106.725,28.009,104.086,30.644,104.086,33.898z"/>
		<g>
			<polygon fill="#FFFFFF" points="90.48,137.991 96.521,131.95 90.48,94.866 84.439,131.952 			"/>
		</g>
		<polygon fill="#FFFFFF" points="60.784,97.163 60.756,97.163 60.765,97.145 		"/>
		<polygon fill="#FFFFFF" points="130.721,106.509 122.475,114.756 114.229,106.509 114.229,160.882 97.85,160.882 97.693,160.734 
			91.443,154.477 90.068,153.107 88.685,154.477 82.436,160.734 82.288,160.882 65.902,160.882 65.902,106.509 57.662,114.748 
			49.415,106.501 65.902,90.014 85.567,90.014 88.063,94.484 81.634,131.95 90.302,140.609 98.96,131.95 92.532,94.484 
			95.027,90.014 114.219,90.014 114.219,90.03 114.229,90.021 		"/>
		<polygon fill="#FFFFFF" points="131.223,124.391 131.205,124.391 131.21,124.381 		"/>
		<path fill="#FFFFFF" d="M146.9,82.017c-7.522,0-13.621,6.098-13.621,13.62c0,7.522,6.099,13.62,13.621,13.62
			c7.521,0,13.619-6.099,13.619-13.62C160.521,88.114,154.423,82.017,146.9,82.017z M154.159,94.333
			c0-1.882-1.524-3.403-3.404-3.403c1.88,0,3.404-1.526,3.404-3.407c0,1.88,1.522,3.407,3.405,3.407
			C155.684,90.93,154.159,92.451,154.159,94.333z"/>
		<path fill="#FFFFFF" d="M160.969,87.523c0-1.882-1.523-3.404-3.404-3.404c1.881,0,3.404-1.525,3.404-3.405
			c0,1.88,1.526,3.405,3.405,3.405C162.495,84.119,160.969,85.641,160.969,87.523z"/>
		<path fill="#FFFFFF" d="M154.159,80.713c0-1.881-1.524-3.405-3.404-3.405c1.88,0,3.404-1.525,3.404-3.404
			c0,1.879,1.524,3.404,3.405,3.404C155.686,77.308,154.159,78.832,154.159,80.713z"/>
		<g>
			<polygon fill="#FFFFFF" points="146.294,140.891 149.785,137.398 146.294,115.96 142.801,137.4 			"/>
		</g>
		<polygon fill="#FFFFFF" points="169.559,122.689 164.79,127.459 160.021,122.689 160.021,154.125 150.555,154.125 
			150.463,154.039 146.852,150.422 146.057,149.631 145.256,150.422 141.643,154.039 141.557,154.125 132.085,154.125 
			132.085,122.689 127.32,127.454 122.553,122.688 132.085,113.154 143.454,113.154 144.896,115.738 141.18,137.398 
			146.189,142.406 151.197,137.398 147.479,115.738 148.923,113.154 160.018,113.154 160.018,113.164 160.021,113.159 		"/>
		<path fill="#FFFFFF" d="M33.215,82.017c-7.522,0-13.621,6.098-13.621,13.62c0,7.522,6.098,13.62,13.621,13.62
			c7.522,0,13.62-6.099,13.62-13.62C46.835,88.114,40.737,82.017,33.215,82.017z M40.474,94.333c0-1.882-1.525-3.403-3.404-3.403
			c1.879,0,3.404-1.526,3.404-3.407c0,1.88,1.523,3.407,3.405,3.407C41.997,90.93,40.474,92.451,40.474,94.333z"/>
		<path fill="#FFFFFF" d="M47.283,87.523c0-1.882-1.524-3.404-3.405-3.404c1.88,0,3.405-1.525,3.405-3.405
			c0,1.88,1.526,3.405,3.405,3.405C48.809,84.119,47.283,85.641,47.283,87.523z"/>
		<path fill="#FFFFFF" d="M40.474,80.713c0-1.881-1.525-3.405-3.404-3.405c1.879,0,3.404-1.525,3.404-3.404
			c0,1.879,1.525,3.404,3.405,3.404C41.999,77.308,40.474,78.832,40.474,80.713z"/>
		<g>
			<polygon fill="#FFFFFF" points="33.821,140.893 30.33,137.398 33.821,115.96 37.314,137.4 			"/>
		</g>
		<polygon fill="#FFFFFF" points="10.557,122.689 15.325,127.459 20.093,122.689 20.093,154.125 29.561,154.125 29.651,154.039 
			33.264,150.422 34.059,149.631 34.86,150.422 38.473,154.039 38.558,154.125 48.031,154.125 48.031,122.689 52.794,127.454 
			57.562,122.688 48.031,113.154 36.662,113.154 35.219,115.738 38.935,137.398 33.924,142.406 28.917,137.398 32.635,115.738 
			31.192,113.154 20.098,113.154 20.098,113.164 20.093,113.159 		"/>
	</g>
	<g id="leads" display="inline">
		<path fill="#FFFFFF" d="M135.93,27.42h-18.47c0.399,1.23,0.61,2.53,0.61,3.89c0,7.13-5.813,12.94-12.95,12.94H74.74
			c-7.13,0-12.94-5.81-12.94-12.94c0-1.36,0.21-2.66,0.61-3.89H45.07c-7.58,0-13.71,6.13-13.71,13.71v115.149
			c0,7.57,6.13,13.711,13.71,13.711h90.86c7.58,0,13.711-6.141,13.711-13.711V41.13C149.641,33.55,143.51,27.42,135.93,27.42z
			 M139.77,145.99c0,6.31-5.119,11.43-11.43,11.43H52.66c-6.31,0-11.43-5.12-11.43-11.43V67.42c0-6.31,5.12-11.43,11.43-11.43h75.68
			c6.311,0,11.43,5.12,11.43,11.43V145.99L139.77,145.99z"/>
		<path fill="#FFFFFF" d="M65.214,81.598c0,1.648-1.336,2.983-2.983,2.983h-7.955c-1.647,0-2.982-1.335-2.982-2.983v-7.954
			c0-1.648,1.335-2.983,2.982-2.983h7.955c1.647,0,2.983,1.335,2.983,2.983V81.598z"/>
		<path fill="#FFFFFF" d="M128.496,81.598c0,1.648-1.335,2.983-2.982,2.983H73.102c-1.646,0-2.982-1.335-2.982-2.983v-7.954
			c0-1.648,1.335-2.983,2.982-2.983h52.412c1.647,0,2.982,1.335,2.982,2.983V81.598L128.496,81.598z"/>
		<path fill="#FFFFFF" d="M65.214,100.741c0,1.647-1.336,2.983-2.983,2.983h-7.955c-1.647,0-2.982-1.336-2.982-2.983v-7.954
			c0-1.648,1.335-2.984,2.982-2.984h7.955c1.647,0,2.983,1.336,2.983,2.984V100.741z"/>
		<path fill="#FFFFFF" d="M128.496,100.741c0,1.647-1.335,2.983-2.982,2.983H73.102c-1.646,0-2.982-1.336-2.982-2.983v-7.954
			c0-1.648,1.335-2.984,2.982-2.984h52.412c1.647,0,2.982,1.336,2.982,2.984V100.741L128.496,100.741z"/>
		<path fill="#FFFFFF" d="M65.214,119.884c0,1.647-1.336,2.983-2.983,2.983h-7.955c-1.647,0-2.982-1.336-2.982-2.983v-7.954
			c0-1.646,1.335-2.979,2.982-2.979h7.955c1.647,0,2.983,1.335,2.983,2.979V119.884z"/>
		<path fill="#FFFFFF" d="M128.496,119.884c0,1.648-1.335,2.983-2.982,2.983H73.102c-1.646,0-2.982-1.336-2.982-2.983v-7.954
			c0-1.646,1.335-2.979,2.982-2.979h52.412c1.647,0,2.982,1.335,2.982,2.979V119.884L128.496,119.884z"/>
		<path fill="#FFFFFF" d="M65.214,139.027c0,1.646-1.336,2.982-2.983,2.982h-7.955c-1.647,0-2.982-1.337-2.982-2.982v-7.955
			c0-1.647,1.335-2.984,2.982-2.984h7.955c1.647,0,2.983,1.337,2.983,2.984V139.027z"/>
		<path fill="#FFFFFF" d="M128.496,139.027c0,1.646-1.335,2.982-2.982,2.982H73.102c-1.646,0-2.982-1.337-2.982-2.982v-7.955
			c0-1.647,1.335-2.984,2.982-2.984h52.412c1.647,0,2.982,1.337,2.982,2.984V139.027L128.496,139.027z"/>
		<g>
			<path fill="#FFFFFF" d="M115.05,27.416c-1.565-3.954-5.429-6.754-9.933-6.754h-4.537c0-5.874-4.777-10.651-10.651-10.651
				c-5.875,0-10.651,4.777-10.651,10.651H74.74c-4.503,0-8.354,2.8-9.909,6.754c-0.48,1.2-0.743,2.526-0.743,3.897
				c0,5.874,4.766,10.651,10.651,10.651h30.377c5.887,0,10.663-4.777,10.663-10.651C115.779,29.942,115.518,28.616,115.05,27.416z
				 M89.929,19.348c-1.84,0-3.337-1.498-3.337-3.337c0-1.839,1.498-3.337,3.337-3.337c1.838,0,3.336,1.497,3.336,3.337
				C93.266,17.851,91.77,19.348,89.929,19.348z"/>
		</g>
	</g>
	<g id="projects" display="inline">
	</g>
</g>
<g id="Layer_2">
	<g>
		<path fill="#FFFFFF" d="M144.25,91.662v44.05c0,4.705-3.833,8.538-8.538,8.538h-44.05v-17.368c1.28,0.599,2.693,0.914,4.157,0.914
			c5.422,0,9.835-4.414,9.835-9.843c0-5.422-4.414-9.836-9.835-9.836c-1.464,0-2.877,0.316-4.157,0.914V91.664h24.62l-2.902-2.852
			c-1.247-1.222-1.938-2.868-1.938-4.631c0-3.592,2.918-6.51,6.51-6.51c3.593,0,6.519,2.918,6.519,6.51
			c0,1.763-0.69,3.409-1.938,4.631l-2.901,2.852h24.619V91.662z"/>
		<path fill="#FFFFFF" d="M102.329,117.951c0,3.593-2.917,6.52-6.51,6.52c-1.546,0-2.992-0.532-4.157-1.497
			c-0.157-0.142-0.322-0.283-0.474-0.441L90,121.319l-1.663-1.688v24.619H44.289c-4.706,0-8.539-3.833-8.539-8.538v-44.05h17.369
			c-0.599,1.28-0.915,2.693-0.915,4.157c0,5.422,4.415,9.835,9.844,9.835c5.421,0,9.835-4.415,9.835-9.835
			c0-1.464-0.316-2.877-0.915-4.157h17.369v24.619L90,114.594l1.188-1.214c0.151-0.158,0.316-0.3,0.474-0.44
			c1.165-0.965,2.611-1.496,4.157-1.496C99.412,111.441,102.329,114.36,102.329,117.951z"/>
		<path fill="#FFFFFF" d="M74.344,62.048c0,5.421,4.415,9.835,9.835,9.835c1.463,0,2.876-0.316,4.157-0.915v17.369H63.719
			l2.902,2.851c1.247,1.223,1.937,2.869,1.937,4.631c0,3.593-2.918,6.51-6.51,6.51s-6.519-2.917-6.519-6.51
			c0-1.762,0.69-3.408,1.938-4.631l2.901-2.851H35.75V44.289c0-4.706,3.833-8.539,8.539-8.539h44.049v17.369
			c-1.28-0.599-2.694-0.915-4.157-0.915C78.759,52.204,74.344,56.618,74.344,62.048z"/>
	</g>
</g>
</svg>
