<?xml version="1.0" encoding="utf-8"?>
<!-- Generator: Adobe Illustrator 16.0.0, SVG Export Plug-In . SVG Version: 6.00 Build 0)  -->
<!DOCTYPE svg PUBLIC "-//W3C//DTD SVG 1.1//EN" "http://www.w3.org/Graphics/SVG/1.1/DTD/svg11.dtd">
<svg version="1.1" id="Layer_1" xmlns="http://www.w3.org/2000/svg" xmlns:xlink="http://www.w3.org/1999/xlink" x="0px" y="0px"
	 width="180px" height="180px" viewBox="0 0 180 180" enable-background="new 0 0 180 180" xml:space="preserve">
<g id="background" display="none">
	<rect display="inline" fill="#4998D3" width="180" height="180"/>
</g>
<g id="calendar" display="none">
	<path display="inline" fill="#FFFFFF" d="M162.242,63.522v80.658c0,6.092-4.926,11.019-11.018,11.019H28.774
		c-6.091,0-11.016-4.927-11.016-11.019V63.522H162.242z"/>
	<path display="inline" fill="#FFFFFF" d="M162.242,45.899v10.89H17.758v-10.89c0-6.083,4.925-11.017,11.016-11.017h7.342v-5.509
		c0-2.349,0.946-4.469,2.484-6.006c1.537-1.529,3.667-2.484,6.006-2.484c4.689,0,8.491,3.802,8.491,8.491v5.509h73.805v-5.509
		c0-2.349,0.945-4.469,2.484-6.006c1.536-1.529,3.664-2.484,6.006-2.484c4.688,0,8.49,3.802,8.49,8.491v5.509h7.342
		C157.316,34.883,162.242,39.816,162.242,45.899z"/>
</g>
<g id="analytics" display="none">
	<g display="inline">
		<polygon fill="#FFFFFF" points="161.828,155.54 161.828,162.596 18.242,162.596 18.242,17.985 25.313,17.985 25.313,155.54 		"/>
	</g>
	<circle display="inline" fill="#FFFFFF" cx="40.286" cy="145.132" r="5.026"/>
	<circle display="inline" fill="#FFFFFF" cx="59.697" cy="108.697" r="5.026"/>
	<circle display="inline" fill="#FFFFFF" cx="79.107" cy="135.835" r="5.026"/>
	<circle display="inline" fill="#FFFFFF" cx="98.518" cy="76.536" r="5.026"/>
	<circle display="inline" fill="#FFFFFF" cx="117.928" cy="108.697" r="5.026"/>
	<circle display="inline" fill="#FFFFFF" cx="137.339" cy="61.648" r="5.026"/>
	<circle display="inline" fill="#FFFFFF" cx="156.75" cy="40.599" r="5.026"/>
	<polyline display="inline" fill="none" stroke="#FFFFFF" stroke-width="2" stroke-miterlimit="10" points="40.286,145.132 
		40.286,145.132 59.696,108.697 79.107,135.835 98.518,76.536 117.928,108.697 137.338,61.648 156.749,40.599 	"/>
</g>
<g id="employees" display="none">
	<path display="inline" fill="#FFFFFF" d="M91.529,36.153c-13.011,0-23.559,10.548-23.559,23.56
		c0,13.009,10.547,23.559,23.559,23.559c13.013,0,23.561-10.55,23.561-23.559C115.09,46.701,104.542,36.153,91.529,36.153z
		 M104.086,57.457c0-3.253-2.638-5.89-5.891-5.89c3.253,0,5.891-2.638,5.891-5.89c0,3.252,2.637,5.89,5.891,5.89
		C106.723,51.567,104.086,54.204,104.086,57.457z"/>
	<path display="inline" fill="#FFFFFF" d="M115.866,45.678c0-3.254-2.638-5.889-5.892-5.889c3.254,0,5.892-2.638,5.892-5.89
		c0,3.252,2.637,5.89,5.89,5.89C118.503,39.789,115.866,42.424,115.866,45.678z"/>
	<path display="inline" fill="#FFFFFF" d="M104.086,33.898c0-3.254-2.638-5.89-5.891-5.89c3.253,0,5.891-2.638,5.891-5.891
		c0,3.252,2.639,5.891,5.891,5.891C106.725,28.009,104.086,30.644,104.086,33.898z"/>
	<g display="inline">
		<polygon fill="#FFFFFF" points="90.48,137.991 96.521,131.95 90.48,94.866 84.439,131.952 		"/>
	</g>
	<polygon display="inline" fill="#FFFFFF" points="60.784,97.163 60.756,97.163 60.765,97.145 	"/>
	<polygon display="inline" fill="#FFFFFF" points="130.721,106.509 122.475,114.756 114.229,106.509 114.229,160.882 97.85,160.882 
		97.693,160.734 91.443,154.477 90.068,153.107 88.685,154.477 82.436,160.734 82.288,160.882 65.902,160.882 65.902,106.509 
		57.662,114.748 49.415,106.501 65.902,90.014 85.567,90.014 88.063,94.484 81.634,131.95 90.302,140.609 98.96,131.95 
		92.532,94.484 95.027,90.014 114.219,90.014 114.219,90.03 114.229,90.021 	"/>
	<polygon display="inline" fill="#FFFFFF" points="131.223,124.391 131.205,124.391 131.21,124.381 	"/>
	<path display="inline" fill="#FFFFFF" d="M146.9,82.017c-7.522,0-13.621,6.098-13.621,13.62c0,7.522,6.099,13.62,13.621,13.62
		c7.521,0,13.619-6.099,13.619-13.62C160.521,88.114,154.423,82.017,146.9,82.017z M154.159,94.333c0-1.882-1.524-3.403-3.404-3.403
		c1.88,0,3.404-1.526,3.404-3.407c0,1.88,1.522,3.407,3.405,3.407C155.684,90.93,154.159,92.451,154.159,94.333z"/>
	<path display="inline" fill="#FFFFFF" d="M160.969,87.523c0-1.882-1.523-3.404-3.404-3.404c1.881,0,3.404-1.525,3.404-3.405
		c0,1.88,1.526,3.405,3.405,3.405C162.495,84.119,160.969,85.641,160.969,87.523z"/>
	<path display="inline" fill="#FFFFFF" d="M154.159,80.713c0-1.881-1.524-3.405-3.404-3.405c1.88,0,3.404-1.525,3.404-3.404
		c0,1.879,1.524,3.404,3.405,3.404C155.686,77.308,154.159,78.832,154.159,80.713z"/>
	<g display="inline">
		<polygon fill="#FFFFFF" points="146.294,140.891 149.785,137.398 146.294,115.96 142.801,137.4 		"/>
	</g>
	<polygon display="inline" fill="#FFFFFF" points="169.559,122.689 164.79,127.459 160.021,122.689 160.021,154.125 
		150.555,154.125 150.463,154.039 146.852,150.422 146.057,149.631 145.256,150.422 141.643,154.039 141.557,154.125 
		132.085,154.125 132.085,122.689 127.32,127.454 122.553,122.688 132.085,113.154 143.454,113.154 144.896,115.738 141.18,137.398 
		146.189,142.406 151.197,137.398 147.479,115.738 148.923,113.154 160.018,113.154 160.018,113.164 160.021,113.159 	"/>
	<path display="inline" fill="#FFFFFF" d="M33.215,82.017c-7.522,0-13.621,6.098-13.621,13.62c0,7.522,6.098,13.62,13.621,13.62
		c7.522,0,13.62-6.099,13.62-13.62C46.835,88.114,40.737,82.017,33.215,82.017z M40.474,94.333c0-1.882-1.525-3.403-3.404-3.403
		c1.879,0,3.404-1.526,3.404-3.407c0,1.88,1.523,3.407,3.405,3.407C41.997,90.93,40.474,92.451,40.474,94.333z"/>
	<path display="inline" fill="#FFFFFF" d="M47.283,87.523c0-1.882-1.524-3.404-3.405-3.404c1.88,0,3.405-1.525,3.405-3.405
		c0,1.88,1.526,3.405,3.405,3.405C48.809,84.119,47.283,85.641,47.283,87.523z"/>
	<path display="inline" fill="#FFFFFF" d="M40.474,80.713c0-1.881-1.525-3.405-3.404-3.405c1.879,0,3.404-1.525,3.404-3.404
		c0,1.879,1.525,3.404,3.405,3.404C41.999,77.308,40.474,78.832,40.474,80.713z"/>
	<g display="inline">
		<polygon fill="#FFFFFF" points="33.821,140.893 30.33,137.398 33.821,115.96 37.314,137.4 		"/>
	</g>
	<polygon display="inline" fill="#FFFFFF" points="10.557,122.689 15.325,127.459 20.093,122.689 20.093,154.125 29.561,154.125 
		29.651,154.039 33.264,150.422 34.059,149.631 34.86,150.422 38.473,154.039 38.558,154.125 48.031,154.125 48.031,122.689 
		52.794,127.454 57.562,122.688 48.031,113.154 36.662,113.154 35.219,115.738 38.935,137.398 33.924,142.406 28.917,137.398 
		32.635,115.738 31.192,113.154 20.098,113.154 20.098,113.164 20.093,113.159 	"/>
</g>
<g id="leads">
	<path fill="#FFFFFF" d="M123.971,37.228h-13.607c0.294,0.907,0.449,1.865,0.449,2.867c0,5.252-4.281,9.533-9.541,9.533H78.889
		c-5.254,0-9.534-4.281-9.534-9.533c0-1.002,0.154-1.96,0.45-2.867H57.03c-5.584,0-10.101,4.516-10.101,10.101v84.836
		c0,5.577,4.516,10.103,10.101,10.103h66.941c5.585,0,10.102-4.525,10.102-10.103V47.328
		C134.072,41.743,129.556,37.228,123.971,37.228z M126.8,124.584c0,4.649-3.771,8.421-8.421,8.421H62.622
		c-4.648,0-8.421-3.771-8.421-8.421V66.698c0-4.65,3.772-8.421,8.421-8.421h55.757c4.649,0,8.421,3.771,8.421,8.421V124.584
		L126.8,124.584z"/>
	<path fill="#FFFFFF" d="M71.87,77.144c0,1.214-0.984,2.197-2.197,2.197h-5.862c-1.213,0-2.196-0.983-2.196-2.197v-5.861
		c0-1.214,0.984-2.197,2.196-2.197h5.862c1.213,0,2.197,0.984,2.197,2.197V77.144z"/>
	<path fill="#FFFFFF" d="M118.493,77.144c0,1.214-0.983,2.197-2.196,2.197H77.682c-1.213,0-2.196-0.983-2.196-2.197v-5.861
		c0-1.214,0.983-2.197,2.196-2.197h38.615c1.213,0,2.196,0.984,2.196,2.197V77.144L118.493,77.144z"/>
	<path fill="#FFFFFF" d="M71.87,91.247c0,1.214-0.984,2.198-2.197,2.198h-5.862c-1.213,0-2.196-0.985-2.196-2.198v-5.861
		c0-1.215,0.984-2.199,2.196-2.199h5.862c1.213,0,2.197,0.984,2.197,2.199V91.247z"/>
	<path fill="#FFFFFF" d="M118.493,91.247c0,1.214-0.983,2.198-2.196,2.198H77.682c-1.213,0-2.196-0.985-2.196-2.198v-5.861
		c0-1.215,0.983-2.199,2.196-2.199h38.615c1.213,0,2.196,0.984,2.196,2.199V91.247L118.493,91.247z"/>
	<path fill="#FFFFFF" d="M71.87,105.35c0,1.215-0.984,2.198-2.197,2.198h-5.862c-1.213,0-2.196-0.984-2.196-2.198V99.49
		c0-1.213,0.984-2.196,2.196-2.196h5.862c1.213,0,2.197,0.984,2.197,2.196V105.35z"/>
	<path fill="#FFFFFF" d="M118.493,105.35c0,1.216-0.983,2.198-2.196,2.198H77.682c-1.213,0-2.196-0.984-2.196-2.198V99.49
		c0-1.213,0.983-2.196,2.196-2.196h38.615c1.213,0,2.196,0.984,2.196,2.196V105.35L118.493,105.35z"/>
	<path fill="#FFFFFF" d="M71.87,119.454c0,1.215-0.984,2.198-2.197,2.198h-5.862c-1.213,0-2.196-0.985-2.196-2.198v-5.861
		c0-1.214,0.984-2.197,2.196-2.197h5.862c1.213,0,2.197,0.984,2.197,2.197V119.454z"/>
	<path fill="#FFFFFF" d="M118.493,119.454c0,1.215-0.983,2.198-2.196,2.198H77.682c-1.213,0-2.196-0.985-2.196-2.198v-5.861
		c0-1.214,0.983-2.197,2.196-2.197h38.615c1.213,0,2.196,0.984,2.196,2.197V119.454L118.493,119.454z"/>
	<g>
		<path fill="#FFFFFF" d="M108.588,37.225c-1.153-2.914-4-4.976-7.318-4.976h-3.343c0-4.328-3.52-7.847-7.847-7.847
			c-4.329,0-7.848,3.52-7.848,7.847h-3.342c-3.318,0-6.155,2.063-7.301,4.976c-0.354,0.884-0.548,1.861-0.548,2.871
			c0,4.328,3.511,7.847,7.847,7.847h22.38c4.337,0,7.856-3.52,7.856-7.847C109.125,39.085,108.932,38.108,108.588,37.225z
			 M90.08,31.28c-1.355,0-2.459-1.104-2.459-2.459s1.104-2.458,2.459-2.458c1.354,0,2.458,1.103,2.458,2.458
			C92.538,30.178,91.436,31.28,90.08,31.28z"/>
	</g>
</g>
<g id="projects" display="none">
</g>
</svg>
