<?xml version="1.0" encoding="utf-8"?>
<!-- Generator: Adobe Illustrator 22.0.0, SVG Export Plug-In . SVG Version: 6.00 Build 0)  -->
<svg version="1.1" id="Layer_1" xmlns="http://www.w3.org/2000/svg" xmlns:xlink="http://www.w3.org/1999/xlink" x="0px" y="0px"
	 viewBox="0 0 180 180" style="enable-background:new 0 0 180 180;" xml:space="preserve">
<style type="text/css">
	.st0{display:none;}
	.st1{display:inline;fill:#4998D3;}
	.st2{display:inline;fill:#FFFFFF;}
	.st3{fill:url(#SVGID_1_);stroke:url(#SVGID_2_);stroke-miterlimit:10;}
	.st4{fill:url(#SVGID_3_);stroke:url(#SVGID_4_);stroke-miterlimit:10;}
	.st5{fill:url(#SVGID_5_);stroke:url(#SVGID_6_);stroke-miterlimit:10;}
	.st6{fill:url(#SVGID_7_);stroke:url(#SVGID_8_);stroke-miterlimit:10;}
	.st7{fill:url(#SVGID_9_);stroke:url(#SVGID_10_);stroke-miterlimit:10;}
	.st8{fill:url(#SVGID_11_);stroke:url(#SVGID_12_);stroke-miterlimit:10;}
	.st9{fill:url(#SVGID_13_);stroke:url(#SVGID_14_);stroke-miterlimit:10;}
	.st10{fill:url(#SVGID_15_);stroke:url(#SVGID_16_);stroke-miterlimit:10;}
	.st11{fill:none;stroke:url(#SVGID_17_);stroke-miterlimit:10;}
	.st12{display:inline;}
	.st13{fill:#FFFFFF;}
</style>
<g id="background" class="st0">
	<rect class="st1" width="180" height="180"/>
</g>
<g id="calendar" class="st0">
	<path class="st2" d="M162.2,63.5v80.7c0,6.1-4.9,11-11,11H28.8c-6.1,0-11-4.9-11-11V63.5H162.2z"/>
	<path class="st2" d="M162.2,45.9v10.9H17.8V45.9c0-6.1,4.9-11,11-11h7.3v-5.5c0-2.3,0.9-4.5,2.5-6c1.5-1.5,3.7-2.5,6-2.5
		c4.7,0,8.5,3.8,8.5,8.5v5.5h73.8v-5.5c0-2.3,0.9-4.5,2.5-6c1.5-1.5,3.7-2.5,6-2.5c4.7,0,8.5,3.8,8.5,8.5v5.5h7.3
		C157.3,34.9,162.2,39.8,162.2,45.9z"/>
</g>
<g id="analytics">
	<g>
		<linearGradient id="SVGID_1_" gradientUnits="userSpaceOnUse" x1="29.395" y1="90.29" x2="150.675" y2="90.29">
			<stop  offset="0" style="stop-color:#FFFFFF"/>
			<stop  offset="0" style="stop-color:#008BE8"/>
			<stop  offset="1" style="stop-color:#0A669B"/>
			<stop  offset="1" style="stop-color:#000000"/>
		</linearGradient>
		<linearGradient id="SVGID_2_" gradientUnits="userSpaceOnUse" x1="28.895" y1="90.29" x2="151.175" y2="90.29">
			<stop  offset="0" style="stop-color:#FFFFFF"/>
			<stop  offset="0" style="stop-color:#008BE8"/>
			<stop  offset="1" style="stop-color:#0A669B"/>
			<stop  offset="1" style="stop-color:#000000"/>
		</linearGradient>
		<polygon class="st3" points="150.7,145.4 150.7,151.4 29.4,151.4 29.4,29.2 35.4,29.2 35.4,145.4 		"/>
	</g>
	<linearGradient id="SVGID_3_" gradientUnits="userSpaceOnUse" x1="43.77" y1="136.612" x2="52.26" y2="136.612">
		<stop  offset="0" style="stop-color:#FFFFFF"/>
		<stop  offset="0" style="stop-color:#008BE8"/>
		<stop  offset="1" style="stop-color:#0A669B"/>
		<stop  offset="1" style="stop-color:#000000"/>
	</linearGradient>
	<linearGradient id="SVGID_4_" gradientUnits="userSpaceOnUse" x1="43.27" y1="136.612" x2="52.76" y2="136.612">
		<stop  offset="0" style="stop-color:#FFFFFF"/>
		<stop  offset="0" style="stop-color:#008BE8"/>
		<stop  offset="1" style="stop-color:#0A669B"/>
		<stop  offset="1" style="stop-color:#000000"/>
	</linearGradient>
	<circle class="st4" cx="48" cy="136.6" r="4.2"/>
	<linearGradient id="SVGID_5_" gradientUnits="userSpaceOnUse" x1="60.165" y1="105.837" x2="68.655" y2="105.837">
		<stop  offset="0" style="stop-color:#FFFFFF"/>
		<stop  offset="0" style="stop-color:#008BE8"/>
		<stop  offset="1" style="stop-color:#0A669B"/>
		<stop  offset="1" style="stop-color:#000000"/>
	</linearGradient>
	<linearGradient id="SVGID_6_" gradientUnits="userSpaceOnUse" x1="59.665" y1="105.837" x2="69.155" y2="105.837">
		<stop  offset="0" style="stop-color:#FFFFFF"/>
		<stop  offset="0" style="stop-color:#008BE8"/>
		<stop  offset="1" style="stop-color:#0A669B"/>
		<stop  offset="1" style="stop-color:#000000"/>
	</linearGradient>
	<circle class="st5" cx="64.4" cy="105.8" r="4.2"/>
	<linearGradient id="SVGID_7_" gradientUnits="userSpaceOnUse" x1="76.56" y1="128.76" x2="85.05" y2="128.76">
		<stop  offset="0" style="stop-color:#FFFFFF"/>
		<stop  offset="0" style="stop-color:#008BE8"/>
		<stop  offset="1" style="stop-color:#0A669B"/>
		<stop  offset="1" style="stop-color:#000000"/>
	</linearGradient>
	<linearGradient id="SVGID_8_" gradientUnits="userSpaceOnUse" x1="76.06" y1="128.76" x2="85.55" y2="128.76">
		<stop  offset="0" style="stop-color:#FFFFFF"/>
		<stop  offset="0" style="stop-color:#008BE8"/>
		<stop  offset="1" style="stop-color:#0A669B"/>
		<stop  offset="1" style="stop-color:#000000"/>
	</linearGradient>
	<circle class="st6" cx="80.8" cy="128.8" r="4.2"/>
	<linearGradient id="SVGID_9_" gradientUnits="userSpaceOnUse" x1="92.953" y1="78.672" x2="101.445" y2="78.672">
		<stop  offset="0" style="stop-color:#FFFFFF"/>
		<stop  offset="0" style="stop-color:#008BE8"/>
		<stop  offset="1" style="stop-color:#0A669B"/>
		<stop  offset="1" style="stop-color:#000000"/>
	</linearGradient>
	<linearGradient id="SVGID_10_" gradientUnits="userSpaceOnUse" x1="92.453" y1="78.672" x2="101.945" y2="78.672">
		<stop  offset="0" style="stop-color:#FFFFFF"/>
		<stop  offset="0" style="stop-color:#008BE8"/>
		<stop  offset="1" style="stop-color:#0A669B"/>
		<stop  offset="1" style="stop-color:#000000"/>
	</linearGradient>
	<circle class="st7" cx="97.2" cy="78.7" r="4.2"/>
	<linearGradient id="SVGID_11_" gradientUnits="userSpaceOnUse" x1="109.35" y1="105.837" x2="117.84" y2="105.837">
		<stop  offset="0" style="stop-color:#FFFFFF"/>
		<stop  offset="0" style="stop-color:#008BE8"/>
		<stop  offset="1" style="stop-color:#0A669B"/>
		<stop  offset="1" style="stop-color:#000000"/>
	</linearGradient>
	<linearGradient id="SVGID_12_" gradientUnits="userSpaceOnUse" x1="108.85" y1="105.837" x2="118.34" y2="105.837">
		<stop  offset="0" style="stop-color:#FFFFFF"/>
		<stop  offset="0" style="stop-color:#008BE8"/>
		<stop  offset="1" style="stop-color:#0A669B"/>
		<stop  offset="1" style="stop-color:#000000"/>
	</linearGradient>
	<circle class="st8" cx="113.6" cy="105.8" r="4.2"/>
	<linearGradient id="SVGID_13_" gradientUnits="userSpaceOnUse" x1="125.745" y1="66.097" x2="134.235" y2="66.097">
		<stop  offset="0" style="stop-color:#FFFFFF"/>
		<stop  offset="0" style="stop-color:#008BE8"/>
		<stop  offset="1" style="stop-color:#0A669B"/>
		<stop  offset="1" style="stop-color:#000000"/>
	</linearGradient>
	<linearGradient id="SVGID_14_" gradientUnits="userSpaceOnUse" x1="125.245" y1="66.097" x2="134.735" y2="66.097">
		<stop  offset="0" style="stop-color:#FFFFFF"/>
		<stop  offset="0" style="stop-color:#008BE8"/>
		<stop  offset="1" style="stop-color:#0A669B"/>
		<stop  offset="1" style="stop-color:#000000"/>
	</linearGradient>
	<circle class="st9" cx="130" cy="66.1" r="4.2"/>
	<linearGradient id="SVGID_15_" gradientUnits="userSpaceOnUse" x1="142.14" y1="48.319" x2="150.63" y2="48.319">
		<stop  offset="0" style="stop-color:#FFFFFF"/>
		<stop  offset="0" style="stop-color:#008BE8"/>
		<stop  offset="1" style="stop-color:#0A669B"/>
		<stop  offset="1" style="stop-color:#000000"/>
	</linearGradient>
	<linearGradient id="SVGID_16_" gradientUnits="userSpaceOnUse" x1="141.64" y1="48.319" x2="151.13" y2="48.319">
		<stop  offset="0" style="stop-color:#FFFFFF"/>
		<stop  offset="0" style="stop-color:#008BE8"/>
		<stop  offset="1" style="stop-color:#0A669B"/>
		<stop  offset="1" style="stop-color:#000000"/>
	</linearGradient>
	<circle class="st10" cx="146.4" cy="48.3" r="4.2"/>
	<linearGradient id="SVGID_17_" gradientUnits="userSpaceOnUse" x1="47.5737" y1="92.4131" x2="146.7525" y2="92.4131">
		<stop  offset="0" style="stop-color:#FFFFFF"/>
		<stop  offset="0" style="stop-color:#008BE8"/>
		<stop  offset="1" style="stop-color:#0A669B"/>
		<stop  offset="1" style="stop-color:#000000"/>
	</linearGradient>
	<polyline class="st11" points="48,136.6 48,136.6 64.4,105.8 80.8,128.8 97.2,78.7 113.6,105.8 130,66.1 146.4,48.3 	"/>
</g>
<g id="employees" class="st0">
	<path class="st2" d="M91.5,36.2c-13,0-23.6,10.5-23.6,23.6c0,13,10.5,23.6,23.6,23.6c13,0,23.6-10.6,23.6-23.6
		C115.1,46.7,104.5,36.2,91.5,36.2z M104.1,57.5c0-3.3-2.6-5.9-5.9-5.9c3.3,0,5.9-2.6,5.9-5.9c0,3.3,2.6,5.9,5.9,5.9
		C106.7,51.6,104.1,54.2,104.1,57.5z"/>
	<path class="st2" d="M115.9,45.7c0-3.3-2.6-5.9-5.9-5.9c3.3,0,5.9-2.6,5.9-5.9c0,3.3,2.6,5.9,5.9,5.9
		C118.5,39.8,115.9,42.4,115.9,45.7z"/>
	<path class="st2" d="M104.1,33.9c0-3.3-2.6-5.9-5.9-5.9c3.3,0,5.9-2.6,5.9-5.9c0,3.3,2.6,5.9,5.9,5.9
		C106.7,28,104.1,30.6,104.1,33.9z"/>
	<g class="st12">
		<polygon class="st13" points="90.5,138 96.5,131.9 90.5,94.9 84.4,132 		"/>
	</g>
	<polygon class="st2" points="60.8,97.2 60.8,97.2 60.8,97.1 	"/>
	<polygon class="st2" points="130.7,106.5 122.5,114.8 114.2,106.5 114.2,160.9 97.8,160.9 97.7,160.7 91.4,154.5 90.1,153.1 
		88.7,154.5 82.4,160.7 82.3,160.9 65.9,160.9 65.9,106.5 57.7,114.7 49.4,106.5 65.9,90 85.6,90 88.1,94.5 81.6,131.9 90.3,140.6 
		99,131.9 92.5,94.5 95,90 114.2,90 114.2,90 114.2,90 	"/>
	<polygon class="st2" points="131.2,124.4 131.2,124.4 131.2,124.4 	"/>
	<path class="st2" d="M146.9,82c-7.5,0-13.6,6.1-13.6,13.6s6.1,13.6,13.6,13.6c7.5,0,13.6-6.1,13.6-13.6
		C160.5,88.1,154.4,82,146.9,82z M154.2,94.3c0-1.9-1.5-3.4-3.4-3.4c1.9,0,3.4-1.5,3.4-3.4c0,1.9,1.5,3.4,3.4,3.4
		C155.7,90.9,154.2,92.5,154.2,94.3z"/>
	<path class="st2" d="M161,87.5c0-1.9-1.5-3.4-3.4-3.4c1.9,0,3.4-1.5,3.4-3.4c0,1.9,1.5,3.4,3.4,3.4C162.5,84.1,161,85.6,161,87.5z"
		/>
	<path class="st2" d="M154.2,80.7c0-1.9-1.5-3.4-3.4-3.4c1.9,0,3.4-1.5,3.4-3.4c0,1.9,1.5,3.4,3.4,3.4
		C155.7,77.3,154.2,78.8,154.2,80.7z"/>
	<g class="st12">
		<polygon class="st13" points="146.3,140.9 149.8,137.4 146.3,116 142.8,137.4 		"/>
	</g>
	<polygon class="st2" points="169.6,122.7 164.8,127.5 160,122.7 160,154.1 150.6,154.1 150.5,154 146.9,150.4 146.1,149.6 
		145.3,150.4 141.6,154 141.6,154.1 132.1,154.1 132.1,122.7 127.3,127.5 122.6,122.7 132.1,113.2 143.5,113.2 144.9,115.7 
		141.2,137.4 146.2,142.4 151.2,137.4 147.5,115.7 148.9,113.2 160,113.2 160,113.2 160,113.2 	"/>
	<path class="st2" d="M33.2,82c-7.5,0-13.6,6.1-13.6,13.6s6.1,13.6,13.6,13.6c7.5,0,13.6-6.1,13.6-13.6C46.8,88.1,40.7,82,33.2,82z
		 M40.5,94.3c0-1.9-1.5-3.4-3.4-3.4c1.9,0,3.4-1.5,3.4-3.4c0,1.9,1.5,3.4,3.4,3.4C42,90.9,40.5,92.5,40.5,94.3z"/>
	<path class="st2" d="M47.3,87.5c0-1.9-1.5-3.4-3.4-3.4c1.9,0,3.4-1.5,3.4-3.4c0,1.9,1.5,3.4,3.4,3.4C48.8,84.1,47.3,85.6,47.3,87.5
		z"/>
	<path class="st2" d="M40.5,80.7c0-1.9-1.5-3.4-3.4-3.4c1.9,0,3.4-1.5,3.4-3.4c0,1.9,1.5,3.4,3.4,3.4C42,77.3,40.5,78.8,40.5,80.7z"
		/>
	<g class="st12">
		<polygon class="st13" points="33.8,140.9 30.3,137.4 33.8,116 37.3,137.4 		"/>
	</g>
	<polygon class="st2" points="10.6,122.7 15.3,127.5 20.1,122.7 20.1,154.1 29.6,154.1 29.7,154 33.3,150.4 34.1,149.6 34.9,150.4 
		38.5,154 38.6,154.1 48,154.1 48,122.7 52.8,127.5 57.6,122.7 48,113.2 36.7,113.2 35.2,115.7 38.9,137.4 33.9,142.4 28.9,137.4 
		32.6,115.7 31.2,113.2 20.1,113.2 20.1,113.2 20.1,113.2 	"/>
</g>
<g id="leads" class="st0">
	<path class="st2" d="M135.9,27.4h-18.5c0.4,1.2,0.6,2.5,0.6,3.9c0,7.1-5.8,12.9-12.9,12.9H74.7c-7.1,0-12.9-5.8-12.9-12.9
		c0-1.4,0.2-2.7,0.6-3.9H45.1c-7.6,0-13.7,6.1-13.7,13.7v115.1c0,7.6,6.1,13.7,13.7,13.7h90.9c7.6,0,13.7-6.1,13.7-13.7V41.1
		C149.6,33.5,143.5,27.4,135.9,27.4z M139.8,146c0,6.3-5.1,11.4-11.4,11.4H52.7c-6.3,0-11.4-5.1-11.4-11.4V67.4
		c0-6.3,5.1-11.4,11.4-11.4h75.7c6.3,0,11.4,5.1,11.4,11.4L139.8,146L139.8,146z"/>
	<path class="st2" d="M65.2,81.6c0,1.6-1.3,3-3,3h-8c-1.6,0-3-1.3-3-3v-8c0-1.6,1.3-3,3-3h8c1.6,0,3,1.3,3,3V81.6z"/>
	<path class="st2" d="M128.5,81.6c0,1.6-1.3,3-3,3H73.1c-1.6,0-3-1.3-3-3v-8c0-1.6,1.3-3,3-3h52.4c1.6,0,3,1.3,3,3L128.5,81.6
		L128.5,81.6z"/>
	<path class="st2" d="M65.2,100.7c0,1.6-1.3,3-3,3h-8c-1.6,0-3-1.3-3-3v-8c0-1.6,1.3-3,3-3h8c1.6,0,3,1.3,3,3V100.7z"/>
	<path class="st2" d="M128.5,100.7c0,1.6-1.3,3-3,3H73.1c-1.6,0-3-1.3-3-3v-8c0-1.6,1.3-3,3-3h52.4c1.6,0,3,1.3,3,3L128.5,100.7
		L128.5,100.7z"/>
	<path class="st2" d="M65.2,119.9c0,1.6-1.3,3-3,3h-8c-1.6,0-3-1.3-3-3v-8c0-1.6,1.3-3,3-3h8c1.6,0,3,1.3,3,3V119.9z"/>
	<path class="st2" d="M128.5,119.9c0,1.6-1.3,3-3,3H73.1c-1.6,0-3-1.3-3-3v-8c0-1.6,1.3-3,3-3h52.4c1.6,0,3,1.3,3,3L128.5,119.9
		L128.5,119.9z"/>
	<path class="st2" d="M65.2,139c0,1.6-1.3,3-3,3h-8c-1.6,0-3-1.3-3-3v-8c0-1.6,1.3-3,3-3h8c1.6,0,3,1.3,3,3V139z"/>
	<path class="st2" d="M128.5,139c0,1.6-1.3,3-3,3H73.1c-1.6,0-3-1.3-3-3v-8c0-1.6,1.3-3,3-3h52.4c1.6,0,3,1.3,3,3L128.5,139
		L128.5,139z"/>
	<g class="st12">
		<path class="st13" d="M115.1,27.4c-1.6-4-5.4-6.8-9.9-6.8h-4.5c0-5.9-4.8-10.7-10.7-10.7c-5.9,0-10.7,4.8-10.7,10.7h-4.5
			c-4.5,0-8.4,2.8-9.9,6.8c-0.5,1.2-0.7,2.5-0.7,3.9c0,5.9,4.8,10.7,10.7,10.7h30.4c5.9,0,10.7-4.8,10.7-10.7
			C115.8,29.9,115.5,28.6,115.1,27.4z M89.9,19.3c-1.8,0-3.3-1.5-3.3-3.3s1.5-3.3,3.3-3.3c1.8,0,3.3,1.5,3.3,3.3
			C93.3,17.9,91.8,19.3,89.9,19.3z"/>
	</g>
</g>
<g id="projects" class="st0">
</g>
</svg>
