<?xml version="1.0" encoding="utf-8"?>
<!-- Generator: Adobe Illustrator 16.0.0, SVG Export Plug-In . SVG Version: 6.00 Build 0)  -->
<!DOCTYPE svg PUBLIC "-//W3C//DTD SVG 1.1//EN" "http://www.w3.org/Graphics/SVG/1.1/DTD/svg11.dtd">
<svg version="1.1" id="Layer_1" xmlns="http://www.w3.org/2000/svg" xmlns:xlink="http://www.w3.org/1999/xlink" x="0px" y="0px"
	 width="180px" height="180px" viewBox="0 0 180 180" enable-background="new 0 0 180 180" xml:space="preserve">
<g id="background" display="none">
	<rect display="inline" fill="#4998D3" width="180" height="180"/>
</g>
<g id="calendar" display="none">
	<path display="inline" fill="#FFFFFF" d="M162.242,63.522v80.658c0,6.092-4.926,11.018-11.018,11.018H28.774
		c-6.091,0-11.016-4.926-11.016-11.018V63.522H162.242z"/>
	<path display="inline" fill="#FFFFFF" d="M162.242,45.899v10.89H17.758v-10.89c0-6.083,4.925-11.017,11.016-11.017h7.342v-5.509
		c0-2.349,0.946-4.469,2.484-6.006c1.537-1.529,3.667-2.484,6.006-2.484c4.689,0,8.491,3.802,8.491,8.491v5.509h73.805v-5.509
		c0-2.349,0.945-4.469,2.484-6.006c1.537-1.529,3.665-2.484,6.006-2.484c4.688,0,8.491,3.802,8.491,8.491v5.509h7.341
		C157.316,34.883,162.242,39.816,162.242,45.899z"/>
</g>
<g id="analytics" display="none">
	<g display="inline">
		<polygon fill="#FFFFFF" points="161.828,155.54 161.828,162.596 18.242,162.596 18.242,17.985 25.313,17.985 25.313,155.54 		"/>
	</g>
	<circle display="inline" fill="#FFFFFF" cx="40.286" cy="145.132" r="5.026"/>
	<circle display="inline" fill="#FFFFFF" cx="59.697" cy="108.697" r="5.026"/>
	<circle display="inline" fill="#FFFFFF" cx="79.107" cy="135.835" r="5.026"/>
	<circle display="inline" fill="#FFFFFF" cx="98.518" cy="76.536" r="5.026"/>
	<circle display="inline" fill="#FFFFFF" cx="117.928" cy="108.697" r="5.026"/>
	<circle display="inline" fill="#FFFFFF" cx="137.339" cy="61.648" r="5.026"/>
	<circle display="inline" fill="#FFFFFF" cx="156.75" cy="40.599" r="5.026"/>
	<polyline display="inline" fill="none" stroke="#FFFFFF" stroke-width="2" stroke-miterlimit="10" points="40.286,145.132 
		40.286,145.132 59.696,108.697 79.107,135.835 98.518,76.536 117.928,108.697 137.338,61.648 156.749,40.599 	"/>
</g>
<g id="employees">
	<path fill="#FFFFFF" d="M91.315,44.183c-11.124,0-20.141,9.018-20.141,20.142c0,11.122,9.017,20.142,20.141,20.142
		c11.126,0,20.143-9.02,20.143-20.142C111.458,53.201,102.441,44.183,91.315,44.183z M102.051,62.396
		c0-2.78-2.255-5.035-5.035-5.035c2.78,0,5.035-2.255,5.035-5.036c0,2.781,2.255,5.036,5.037,5.036
		C104.306,57.36,102.051,59.615,102.051,62.396z"/>
	<path fill="#FFFFFF" d="M112.123,52.326c0-2.782-2.257-5.035-5.038-5.035c2.781,0,5.038-2.255,5.038-5.036
		c0,2.78,2.254,5.036,5.033,5.036C114.377,47.291,112.123,49.544,112.123,52.326z"/>
	<path fill="#FFFFFF" d="M102.051,42.254c0-2.781-2.255-5.035-5.035-5.035c2.78,0,5.035-2.255,5.035-5.036
		c0,2.78,2.256,5.036,5.037,5.036C104.307,37.22,102.051,39.473,102.051,42.254z"/>
	<g>
		<polygon fill="#FFFFFF" points="90.418,131.246 95.583,126.082 90.418,94.378 85.254,126.083 		"/>
	</g>
	<polygon fill="#FFFFFF" points="65.031,96.341 65.007,96.341 65.015,96.326 	"/>
	<polygon fill="#FFFFFF" points="124.821,104.332 117.772,111.382 110.722,104.332 110.722,150.815 96.719,150.815 96.586,150.688 
		91.243,145.339 90.067,144.169 88.884,145.339 83.542,150.688 83.415,150.815 69.406,150.815 69.406,104.332 62.362,111.376 
		55.311,104.325 69.406,90.23 86.218,90.23 88.352,94.052 82.856,126.082 90.267,133.485 97.668,126.082 92.173,94.052 
		94.306,90.23 110.713,90.23 110.713,90.243 110.722,90.236 	"/>
	<polygon fill="#FFFFFF" points="125.251,119.618 125.234,119.618 125.24,119.611 	"/>
	<path fill="#FFFFFF" d="M138.653,83.393c-6.431,0-11.645,5.214-11.645,11.644c0,6.429,5.214,11.644,11.645,11.644
		s11.644-5.215,11.644-11.644C150.298,88.605,145.085,83.393,138.653,83.393z M144.859,93.922c0-1.607-1.305-2.909-2.91-2.909
		c1.605,0,2.91-1.305,2.91-2.913c0,1.607,1.302,2.913,2.911,2.913C146.162,91.013,144.859,92.314,144.859,93.922z"/>
	<path fill="#FFFFFF" d="M150.681,88.1c0-1.609-1.302-2.91-2.91-2.91c1.608,0,2.91-1.304,2.91-2.912
		c0,1.608,1.306,2.912,2.912,2.912C151.986,85.19,150.681,86.491,150.681,88.1z"/>
	<path fill="#FFFFFF" d="M144.859,82.278c0-1.608-1.305-2.911-2.91-2.911c1.605,0,2.91-1.303,2.91-2.91
		c0,1.607,1.303,2.91,2.911,2.91C146.164,79.367,144.859,80.67,144.859,82.278z"/>
	<g>
		<polygon fill="#FFFFFF" points="138.136,133.726 141.121,130.739 138.136,112.411 135.148,130.74 		"/>
	</g>
	<polygon fill="#FFFFFF" points="158.025,118.165 153.948,122.243 149.871,118.165 149.871,145.04 141.778,145.04 141.699,144.965 
		138.612,141.874 137.934,141.197 137.248,141.874 134.158,144.965 134.085,145.04 125.988,145.04 125.988,118.165 121.915,122.237 
		117.838,118.162 125.988,110.014 135.707,110.014 136.94,112.222 133.763,130.739 138.045,135.021 142.326,130.739 
		139.148,112.222 140.383,110.014 149.868,110.014 149.868,110.021 149.871,110.017 	"/>
	<path fill="#FFFFFF" d="M41.461,83.393c-6.43,0-11.645,5.214-11.645,11.644c0,6.429,5.213,11.644,11.645,11.644
		c6.431,0,11.644-5.215,11.644-11.644C53.105,88.605,47.893,83.393,41.461,83.393z M47.667,93.922c0-1.607-1.304-2.909-2.911-2.909
		c1.607,0,2.911-1.305,2.911-2.913c0,1.607,1.303,2.913,2.911,2.913C48.97,91.013,47.667,92.314,47.667,93.922z"/>
	<path fill="#FFFFFF" d="M53.488,88.1c0-1.609-1.302-2.91-2.91-2.91c1.607,0,2.91-1.304,2.91-2.912c0,1.608,1.305,2.912,2.912,2.912
		C54.793,85.19,53.488,86.491,53.488,88.1z"/>
	<path fill="#FFFFFF" d="M47.667,82.278c0-1.608-1.304-2.911-2.911-2.911c1.607,0,2.911-1.303,2.911-2.91
		c0,1.607,1.304,2.91,2.911,2.91C48.972,79.367,47.667,80.67,47.667,82.278z"/>
	<g>
		<polygon fill="#FFFFFF" points="41.979,133.727 38.995,130.739 41.979,112.411 44.966,130.74 		"/>
	</g>
	<polygon fill="#FFFFFF" points="22.091,118.165 26.168,122.243 30.243,118.165 30.243,145.04 38.338,145.04 38.414,144.965 
		41.504,141.874 42.183,141.197 42.868,141.874 45.957,144.965 46.03,145.04 54.129,145.04 54.129,118.165 58.2,122.237 
		62.277,118.162 54.129,110.014 44.408,110.014 43.175,112.222 46.352,130.739 42.068,135.021 37.787,130.739 40.966,112.222 
		39.732,110.014 30.248,110.014 30.248,110.021 30.243,110.017 	"/>
</g>
<g id="leads" display="none">
	<path display="inline" fill="#FFFFFF" d="M135.93,27.42h-18.47c0.399,1.23,0.61,2.53,0.61,3.89c0,7.13-5.812,12.94-12.95,12.94
		H74.74c-7.13,0-12.94-5.81-12.94-12.94c0-1.36,0.21-2.66,0.61-3.89H45.07c-7.58,0-13.71,6.13-13.71,13.71v115.149
		c0,7.57,6.13,13.711,13.71,13.711h90.86c7.58,0,13.711-6.141,13.711-13.711V41.13C149.641,33.55,143.51,27.42,135.93,27.42z
		 M139.77,145.99c0,6.31-5.119,11.43-11.43,11.43H52.66c-6.31,0-11.43-5.12-11.43-11.43V67.42c0-6.31,5.12-11.43,11.43-11.43h75.68
		c6.311,0,11.43,5.12,11.43,11.43V145.99L139.77,145.99z"/>
	<path display="inline" fill="#FFFFFF" d="M65.214,81.598c0,1.648-1.336,2.983-2.983,2.983h-7.955c-1.647,0-2.982-1.335-2.982-2.983
		v-7.954c0-1.648,1.335-2.983,2.982-2.983h7.955c1.647,0,2.983,1.335,2.983,2.983V81.598z"/>
	<path display="inline" fill="#FFFFFF" d="M128.496,81.598c0,1.648-1.335,2.983-2.982,2.983H73.102
		c-1.646,0-2.982-1.335-2.982-2.983v-7.954c0-1.648,1.335-2.983,2.982-2.983h52.412c1.647,0,2.982,1.335,2.982,2.983V81.598
		L128.496,81.598z"/>
	<path display="inline" fill="#FFFFFF" d="M65.214,100.741c0,1.647-1.336,2.983-2.983,2.983h-7.955
		c-1.647,0-2.982-1.336-2.982-2.983v-7.954c0-1.648,1.335-2.984,2.982-2.984h7.955c1.647,0,2.983,1.336,2.983,2.984V100.741z"/>
	<path display="inline" fill="#FFFFFF" d="M128.496,100.741c0,1.647-1.335,2.983-2.982,2.983H73.102
		c-1.646,0-2.982-1.336-2.982-2.983v-7.954c0-1.648,1.335-2.984,2.982-2.984h52.412c1.647,0,2.982,1.336,2.982,2.984V100.741
		L128.496,100.741z"/>
	<path display="inline" fill="#FFFFFF" d="M65.214,119.884c0,1.647-1.336,2.983-2.983,2.983h-7.955
		c-1.647,0-2.982-1.336-2.982-2.983v-7.954c0-1.646,1.335-2.981,2.982-2.981h7.955c1.647,0,2.983,1.335,2.983,2.981V119.884z"/>
	<path display="inline" fill="#FFFFFF" d="M128.496,119.884c0,1.648-1.335,2.983-2.982,2.983H73.102
		c-1.646,0-2.982-1.336-2.982-2.983v-7.954c0-1.646,1.335-2.981,2.982-2.981h52.412c1.647,0,2.982,1.335,2.982,2.981V119.884
		L128.496,119.884z"/>
	<path display="inline" fill="#FFFFFF" d="M65.214,139.027c0,1.647-1.336,2.984-2.983,2.984h-7.955
		c-1.647,0-2.982-1.337-2.982-2.984v-7.955c0-1.647,1.335-2.984,2.982-2.984h7.955c1.647,0,2.983,1.337,2.983,2.984V139.027z"/>
	<path display="inline" fill="#FFFFFF" d="M128.496,139.027c0,1.647-1.335,2.984-2.982,2.984H73.102
		c-1.646,0-2.982-1.337-2.982-2.984v-7.955c0-1.647,1.335-2.984,2.982-2.984h52.412c1.647,0,2.982,1.337,2.982,2.984V139.027
		L128.496,139.027z"/>
	<g display="inline">
		<path fill="#FFFFFF" d="M115.05,27.416c-1.565-3.954-5.429-6.754-9.933-6.754h-4.537c0-5.874-4.777-10.651-10.651-10.651
			c-5.875,0-10.651,4.777-10.651,10.651H74.74c-4.503,0-8.354,2.8-9.909,6.754c-0.48,1.2-0.743,2.526-0.743,3.897
			c0,5.874,4.766,10.651,10.651,10.651h30.377c5.887,0,10.663-4.777,10.663-10.651C115.779,29.942,115.518,28.616,115.05,27.416z
			 M89.929,19.348c-1.84,0-3.337-1.498-3.337-3.337c0-1.839,1.498-3.337,3.337-3.337c1.838,0,3.336,1.497,3.336,3.337
			C93.266,17.851,91.77,19.348,89.929,19.348z"/>
	</g>
</g>
<g id="projects" display="none">
</g>
</svg>
