<?xml version="1.0" encoding="utf-8"?>
<!-- Generator: Adobe Illustrator 16.0.0, SVG Export Plug-In . SVG Version: 6.00 Build 0)  -->
<!DOCTYPE svg PUBLIC "-//W3C//DTD SVG 1.1//EN" "http://www.w3.org/Graphics/SVG/1.1/DTD/svg11.dtd">
<svg version="1.1" xmlns="http://www.w3.org/2000/svg" xmlns:xlink="http://www.w3.org/1999/xlink" x="0px" y="0px"
	 width="1572.557px" height="958px" viewBox="0 0 1572.557 958" enable-background="new 0 0 1572.557 958" xml:space="preserve">
<g id="Layer_5" display="none">
	<rect x="-183.76" y="-81" display="inline" fill="#488DCB" width="1920" height="1080"/>
</g>
<g id="Layer_1" display="none">
	<g display="inline">
		<path fill="#488DCB" d="M739.444,434.85l-63.936,148.591h-39.072c-0.796-6.309-3.358-22.395-7.696-48.248
			c-4.348-25.844-7.308-43.705-8.88-53.576c-3.164-24.465-5.328-40.052-6.512-46.767L578.42,605.938h-55.056l62.752-268.768h55.648
			c0.389,3.95,1.378,10.166,2.96,18.648c1.573,8.492,3.256,17.963,5.032,28.416c1.776,10.462,3.645,21.812,5.624,34.04
			c1.97,12.238,3.746,23.976,5.328,35.225c1.572,11.248,2.96,21.607,4.144,31.08c1.184,9.471,2.165,16.973,2.96,22.496
			c1.572-5.125,4.44-12.432,8.584-21.904s8.584-19.924,13.32-31.376c4.736-11.442,9.86-23.18,15.392-35.224
			c5.522-12.034,10.749-23.384,15.688-34.04c4.93-10.656,9.269-20.22,13.024-28.712c3.746-8.482,6.604-14.698,8.584-18.648h55.648
			l-13.023,268.768h-57.424c0.388-4.338,0.786-10.85,1.184-19.535c0.389-8.678,1.083-18.445,2.072-29.305
			c0.98-10.85,1.776-22.199,2.368-34.039c0.592-11.842,1.276-23.283,2.072-34.336c0.786-11.045,1.572-21.406,2.368-31.081
			C738.455,447.975,739.046,440.381,739.444,434.85z"/>
		<path fill="#488DCB" d="M831.625,652.641c17.76,5.92,34.928,8.879,51.504,8.879c11.84,0,19.535-1.582,23.088-4.736
			c7.492-6.715,12.626-17.963,15.393-33.744l7.104-44.99h-1.184c-20.924,20.922-41.44,31.375-61.568,31.375
			c-20.129,0-33.355-6.012-39.664-18.057c-6.318-12.033-7.899-30.486-4.736-55.352L841.69,395.12h55.647L878.985,522.4
			c-1.582,16.576-1.775,26.639-0.592,30.191c2.757,5.92,8.288,8.881,16.576,8.881c9.473,0,20.322-5.717,32.561-17.168
			c2.756-2.369,4.93-4.145,6.512-5.328l20.128-143.856h55.056l-31.968,226.735c-3.95,27.621-13.024,48.045-27.231,61.273
			c-14.209,13.217-35.133,19.832-62.752,19.832c-19.342,0-41.441-4.145-66.305-12.434L831.625,652.641z"/>
		<path fill="#488DCB" d="M1160.073,397.534l-5.38,40.51l-0.13,0.64c-3.17-0.39-8.59-1.78-16.28-4.15
			c-7.7-2.36-15.9-3.55-24.57-3.55c-16.58,0-25.859,5.53-27.83,16.58c-0.79,5.13,0.49,9.77,3.851,13.91
			c3.35,4.141,7.59,8.29,12.729,12.431c5.12,4.14,10.851,8.489,17.17,13.029c5.471,3.94,10.49,8.23,15.07,12.91l0.01,0.01
			c0.7,0.71,1.4,1.44,2.08,2.17c11.84,12.641,16.38,27.631,13.62,44.99c-1.58,17.37-9.08,32.181-22.5,44.4
			c-14.2,12.24-33.55,18.359-58.01,18.359c-16.19,0-28.42-1.59-36.71-4.739c-7.13-2.57-12.91-4.84-17.36-6.82l5.54-41.71
			c1.181,0.39,3.34,1.37,6.5,2.95c3.15,1.58,6.9,3.16,11.24,4.729c11.05,3.551,20.33,5.33,27.83,5.33c7.49,0,13.51-1.279,18.05-3.85
			c4.54-2.561,7.3-7.101,8.29-13.61c0.98-6.52-0.1-12.04-3.25-16.58c-3.17-4.529-7.21-8.97-12.14-13.319
			c-4.94-4.341-10.36-8.78-16.28-13.32c-5.92-4.53-11.25-9.771-15.98-15.69c-1.569-1.85-3.01-3.75-4.31-5.689
			c-0.96-1.42-1.84-2.88-2.65-4.351c-5.83-10.609-7.85-22.46-6.069-35.54c1.81-13.26,6.899-24.5,15.26-33.74l0.01-0.01
			c2.59-2.86,5.49-5.52,8.71-7.99c13.61-10.45,31.87-15.69,54.76-15.69C1128.113,390.134,1144.363,392.604,1160.073,397.534z"/>
		<path fill="#488DCB" d="M1307.591,394.659l-4.735,40.256h-45.584l-14.208,100.64c-1.582,9.084-1.582,15.791,0,20.129
			c1.572,4.348,5.624,6.512,12.136,6.512s12.136-0.889,16.872-2.664c4.735-1.775,7.89-2.859,9.472-3.256v39.072
			c-1.582,0.396-3.949,1.387-7.104,2.959c-3.164,1.582-6.716,3.164-10.656,4.736c-9.87,4.338-20.924,6.512-33.152,6.512
			c-18.943,0-31.773-5.031-38.479-15.096c-6.716-10.064-8.492-27.131-5.328-51.207l15.983-108.337h-22.495l5.327-40.256h22.496
			l7.104-50.32l56.24-8.88l-8.881,59.2H1307.591z"/>
		<path fill="#488DCB" d="M1370.983,605.938h-55.595l28.694-208.033l57.388-7.771L1370.983,605.938z M1386.724,298.69
			c8.88,0,15.78,3.164,20.72,9.472c4.93,6.318,6.706,14.31,5.328,23.976c-1.388,9.675-5.43,17.565-12.137,23.68
			c-6.715,6.124-14.504,9.176-23.384,9.176s-15.892-3.053-21.016-9.176c-5.134-6.114-7.104-13.912-5.92-23.384
			c1.97-9.86,6.309-17.954,13.023-24.272C1370.046,301.854,1377.843,298.69,1386.724,298.69z"/>
		<path fill="#488DCB" d="M1560.125,439.27c-13.023-4.338-24.077-6.512-33.151-6.512c-13.819,0-24.67,5.43-32.561,16.28
			c-7.899,10.859-13.523,28.222-16.872,52.095c-3.357,23.885-2.368,40.654,2.96,50.32c5.328,9.676,13.024,14.504,23.088,14.504
			c10.064,0,18.843-1.479,26.345-4.439c7.492-2.959,12.626-4.828,15.392-5.623l7.696,34.336
			c-21.71,13.023-42.43,19.535-62.16,19.535c-56.832,0-80.317-35.715-70.448-107.152c9.86-74.98,44.789-112.479,104.784-112.479
			c16.965,0,32.754,2.766,47.36,8.288L1560.125,439.27z"/>
	</g>
</g>
<g id="Layer_7" display="none">
	<circle display="inline" fill="#488DCB" cx="200" cy="502.876" r="200"/>
	<path display="inline" fill="#488DCB" d="M406.593,383.743c0-27.62-22.39-50-50-50c27.61,0,50-22.391,50-50
		c0,27.609,22.391,50,50,50C428.984,333.743,406.593,356.123,406.593,383.743z"/>
	<path display="inline" fill="#488DCB" d="M306.593,283.743c0-27.62-22.39-50-50-50c27.61,0,50-22.39,50-50c0,27.61,22.391,50,50,50
		C328.984,233.743,306.593,256.123,306.593,283.743z"/>
	<path display="inline" fill="#FFFFFF" d="M306.593,483.743c0-27.62-22.39-50-50-50c27.61,0,50-22.39,50-50c0,27.61,22.391,50,50,50
		C328.984,433.743,306.593,456.123,306.593,483.743z"/>
</g>
<g id="Layer_6">
	<g>
		<path fill="#FFFFFF" d="M739.444,434.85l-63.936,148.591h-39.072c-0.796-6.309-3.358-22.395-7.696-48.248
			c-4.348-25.844-7.308-43.705-8.88-53.576c-3.164-24.465-5.328-40.052-6.512-46.767L578.42,605.938h-55.056l62.752-268.768h55.648
			c0.389,3.95,1.378,10.166,2.96,18.648c1.573,8.492,3.256,17.963,5.032,28.416c1.776,10.462,3.645,21.812,5.624,34.04
			c1.97,12.238,3.746,23.976,5.328,35.225c1.572,11.248,2.96,21.607,4.144,31.08c1.184,9.471,2.165,16.973,2.96,22.496
			c1.572-5.125,4.44-12.432,8.584-21.904s8.584-19.924,13.32-31.376c4.736-11.442,9.86-23.18,15.392-35.224
			c5.522-12.034,10.749-23.384,15.688-34.04c4.93-10.656,9.269-20.22,13.024-28.712c3.746-8.482,6.604-14.698,8.584-18.648h55.648
			l-13.023,268.768h-57.424c0.388-4.338,0.786-10.85,1.184-19.535c0.389-8.678,1.083-18.445,2.072-29.305
			c0.98-10.85,1.776-22.199,2.368-34.039c0.592-11.842,1.276-23.283,2.072-34.336c0.786-11.045,1.572-21.406,2.368-31.081
			C738.455,447.975,739.046,440.381,739.444,434.85z"/>
		<path fill="#FFFFFF" d="M831.625,652.641c17.76,5.92,34.928,8.879,51.504,8.879c11.84,0,19.535-1.582,23.088-4.736
			c7.492-6.715,12.626-17.963,15.393-33.744l7.104-44.99h-1.184c-20.924,20.922-41.44,31.375-61.568,31.375
			c-20.129,0-33.355-6.012-39.664-18.057c-6.318-12.033-7.899-30.486-4.736-55.352L841.69,395.12h55.647L878.985,522.4
			c-1.582,16.576-1.775,26.639-0.592,30.191c2.757,5.92,8.288,8.881,16.576,8.881c9.473,0,20.322-5.717,32.561-17.168
			c2.756-2.369,4.93-4.145,6.512-5.328l20.128-143.856h55.056l-31.968,226.735c-3.95,27.621-13.024,48.045-27.231,61.273
			c-14.209,13.217-35.133,19.832-62.752,19.832c-19.342,0-41.441-4.145-66.305-12.434L831.625,652.641z"/>
		<path fill="#FFFFFF" d="M1160.073,397.534l-5.38,40.51l-0.13,0.64c-3.17-0.39-8.59-1.78-16.28-4.15
			c-7.7-2.36-15.9-3.55-24.57-3.55c-16.58,0-25.859,5.53-27.83,16.58c-0.79,5.13,0.49,9.77,3.851,13.91
			c3.35,4.141,7.59,8.29,12.729,12.431c5.12,4.14,10.851,8.489,17.17,13.029c5.471,3.94,10.49,8.23,15.07,12.91l0.01,0.01
			c0.7,0.71,1.4,1.44,2.08,2.17c11.84,12.641,16.38,27.631,13.62,44.99c-1.58,17.37-9.08,32.181-22.5,44.4
			c-14.2,12.24-33.55,18.359-58.01,18.359c-16.19,0-28.42-1.59-36.71-4.739c-7.13-2.57-12.91-4.84-17.36-6.82l5.54-41.71
			c1.181,0.39,3.34,1.37,6.5,2.95c3.15,1.58,6.9,3.16,11.24,4.729c11.05,3.551,20.33,5.33,27.83,5.33c7.49,0,13.51-1.279,18.05-3.85
			c4.54-2.561,7.3-7.101,8.29-13.61c0.98-6.52-0.1-12.04-3.25-16.58c-3.17-4.529-7.21-8.97-12.14-13.319
			c-4.94-4.341-10.36-8.78-16.28-13.32c-5.92-4.53-11.25-9.771-15.98-15.69c-1.569-1.85-3.01-3.75-4.31-5.689
			c-0.96-1.42-1.84-2.88-2.65-4.351c-5.83-10.609-7.85-22.46-6.069-35.54c1.81-13.26,6.899-24.5,15.26-33.74l0.01-0.01
			c2.59-2.86,5.49-5.52,8.71-7.99c13.61-10.45,31.87-15.69,54.76-15.69C1128.113,390.134,1144.363,392.604,1160.073,397.534z"/>
		<path fill="#FFFFFF" d="M1307.591,394.659l-4.735,40.256h-45.584l-14.208,100.64c-1.582,9.084-1.582,15.791,0,20.129
			c1.572,4.348,5.624,6.512,12.136,6.512s12.136-0.889,16.872-2.664c4.735-1.775,7.89-2.859,9.472-3.256v39.072
			c-1.582,0.396-3.949,1.387-7.104,2.959c-3.164,1.582-6.716,3.164-10.656,4.736c-9.87,4.338-20.924,6.512-33.152,6.512
			c-18.943,0-31.773-5.031-38.479-15.096c-6.716-10.064-8.492-27.131-5.328-51.207l15.983-108.337h-22.495l5.327-40.256h22.496
			l7.104-50.32l56.24-8.88l-8.881,59.2H1307.591z"/>
		<path fill="#FFFFFF" d="M1370.983,605.938h-55.595l28.694-208.033l57.388-7.771L1370.983,605.938z M1386.724,298.69
			c8.88,0,15.78,3.164,20.72,9.472c4.93,6.318,6.706,14.31,5.328,23.976c-1.388,9.675-5.43,17.565-12.137,23.68
			c-6.715,6.124-14.504,9.176-23.384,9.176s-15.892-3.053-21.016-9.176c-5.134-6.114-7.104-13.912-5.92-23.384
			c1.97-9.86,6.309-17.954,13.023-24.272C1370.046,301.854,1377.843,298.69,1386.724,298.69z"/>
		<path fill="#FFFFFF" d="M1560.125,439.27c-13.023-4.338-24.077-6.512-33.151-6.512c-13.819,0-24.67,5.43-32.561,16.28
			c-7.899,10.859-13.523,28.222-16.872,52.095c-3.357,23.885-2.368,40.654,2.96,50.32c5.328,9.676,13.024,14.504,23.088,14.504
			c10.064,0,18.843-1.479,26.345-4.439c7.492-2.959,12.626-4.828,15.392-5.623l7.696,34.336
			c-21.71,13.023-42.43,19.535-62.16,19.535c-56.832,0-80.317-35.715-70.448-107.152c9.86-74.98,44.789-112.479,104.784-112.479
			c16.965,0,32.754,2.766,47.36,8.288L1560.125,439.27z"/>
	</g>
</g>
<g id="Layer_4">
	<circle fill="#FFFFFF" cx="200" cy="502.876" r="200"/>
	<path fill="#FFFFFF" d="M406.593,383.743c0-27.62-22.39-50-50-50c27.61,0,50-22.391,50-50c0,27.609,22.391,50,50,50
		C428.984,333.743,406.593,356.123,406.593,383.743z"/>
	<path fill="#FFFFFF" d="M306.593,283.743c0-27.62-22.39-50-50-50c27.61,0,50-22.39,50-50c0,27.61,22.391,50,50,50
		C328.984,233.743,306.593,256.123,306.593,283.743z"/>
	<path fill="#488DCB" d="M306.593,483.743c0-27.62-22.39-50-50-50c27.61,0,50-22.39,50-50c0,27.61,22.391,50,50,50
		C328.984,433.743,306.593,456.123,306.593,483.743z"/>
</g>
<g id="Layer_2" display="none">
	<path display="inline" fill="#488DCB" d="M409.741,514.699c-14.87,63.773-55.937,114.621-109.166,143.824l74.866-321.095
		C410.267,387.161,424.608,450.927,409.741,514.699z"/>
	<path display="inline" fill="#488DCB" d="M271.289,256.99c21.281,7.88,40.771,18.805,58.068,32.148l-91.472,392.309
		c-21.416,4.32-43.728,5.498-66.297,3.154L271.289,256.99z"/>
	<path display="inline" fill="#488DCB" d="M150.605,247.46c21.417-4.315,43.728-5.496,66.298-3.15l-99.702,427.608
		c-21.28-7.877-40.769-18.803-58.067-32.145L150.605,247.46z"/>
	<path display="inline" fill="#488DCB" d="M87.915,270.388L13.049,591.482c-34.823-49.732-49.167-113.5-34.298-177.272
		C-6.379,350.439,34.688,299.591,87.915,270.388z"/>
</g>
<g id="Layer_3" display="none">
	<path display="inline" fill="#488DCB" d="M359.665,295.104L301.05,546.495c-27.264-38.938-38.494-88.86-26.853-138.79
		C285.839,357.778,317.992,317.967,359.665,295.104z"/>
	<path display="inline" fill="#488DCB" d="M408.746,277.153c16.768-3.378,34.236-4.302,51.906-2.466L382.593,609.47
		c-16.66-6.167-31.919-14.721-45.462-25.167L408.746,277.153z"/>
	<path display="inline" fill="#488DCB" d="M503.232,284.614c16.661,6.17,31.92,14.722,45.463,25.17L477.08,616.931
		c-16.767,3.382-34.235,4.304-51.906,2.47L503.232,284.614z"/>
</g>
</svg>
