<?xml version="1.0" encoding="utf-8"?>
<!-- Generator: Adobe Illustrator 22.0.0, SVG Export Plug-In . SVG Version: 6.00 Build 0)  -->
<svg version="1.1" id="Layer_1" xmlns="http://www.w3.org/2000/svg" xmlns:xlink="http://www.w3.org/1999/xlink" x="0px" y="0px"
	 viewBox="0 0 180 180" style="enable-background:new 0 0 180 180;" xml:space="preserve">
<style type="text/css">
	.st0{display:none;}
	.st1{display:inline;fill:#4998D3;}
	.st2{display:inline;fill:#FFFFFF;}
	.st3{display:inline;}
	.st4{fill:#FFFFFF;}
	.st5{display:inline;fill:none;stroke:#FFFFFF;stroke-width:2;stroke-miterlimit:10;}
	.st6{display:none;fill:#FFFFFF;}
</style>
<g id="background" class="st0">
	<rect class="st1" width="180" height="180"/>
</g>
<g id="calendar" class="st0">
	<path class="st2" d="M162.2,63.5v80.7c0,6.1-4.9,11-11,11H28.8c-6.1,0-11-4.9-11-11V63.5H162.2z"/>
	<path class="st2" d="M162.2,45.9v10.9H17.8V45.9c0-6.1,4.9-11,11-11h7.3v-5.5c0-2.3,0.9-4.5,2.5-6c1.5-1.5,3.7-2.5,6-2.5
		c4.7,0,8.5,3.8,8.5,8.5v5.5h73.8v-5.5c0-2.3,0.9-4.5,2.5-6c1.5-1.5,3.7-2.5,6-2.5c4.7,0,8.5,3.8,8.5,8.5v5.5h7.3
		C157.3,34.9,162.2,39.8,162.2,45.9z"/>
</g>
<g id="analytics" class="st0">
	<g class="st3">
		<polygon class="st4" points="161.8,155.5 161.8,162.6 18.2,162.6 18.2,18 25.3,18 25.3,155.5 		"/>
	</g>
	<circle class="st2" cx="40.3" cy="145.1" r="5"/>
	<circle class="st2" cx="59.7" cy="108.7" r="5"/>
	<circle class="st2" cx="79.1" cy="135.8" r="5"/>
	<circle class="st2" cx="98.5" cy="76.5" r="5"/>
	<circle class="st2" cx="117.9" cy="108.7" r="5"/>
	<circle class="st2" cx="137.3" cy="61.6" r="5"/>
	<circle class="st2" cx="156.8" cy="40.6" r="5"/>
	<polyline class="st5" points="40.3,145.1 40.3,145.1 59.7,108.7 79.1,135.8 98.5,76.5 117.9,108.7 137.3,61.6 156.7,40.6 	"/>
</g>
<g id="employees">
	<path class="st4" d="M91.4,21.4c-16.1,0-29.2,13.1-29.2,29.2c0,16.1,13.1,29.2,29.2,29.2c16.1,0,29.2-13.1,29.2-29.2
		C120.6,34.5,107.6,21.4,91.4,21.4z M107,47.8c0-4-3.3-7.3-7.3-7.3c4,0,7.3-3.3,7.3-7.3c0,4,3.3,7.3,7.3,7.3
		C110.3,40.5,107,43.8,107,47.8z"/>
	<path class="st4" d="M121.6,33.2c0-4-3.3-7.3-7.3-7.3c4,0,7.3-3.3,7.3-7.3c0,4,3.3,7.3,7.3,7.3C124.8,25.9,121.6,29.2,121.6,33.2z"
		/>
	<path class="st4" d="M107,18.6c0-4-3.3-7.3-7.3-7.3c4,0,7.3-3.3,7.3-7.3c0,4,3.3,7.3,7.3,7.3C110.3,11.3,107,14.6,107,18.6z"/>
	<g>
		<polygon class="st4" points="90.1,147.6 97.6,140.1 90.1,94.2 82.6,140.1 		"/>
	</g>
	<polygon class="st4" points="53.3,97 53.3,97 53.3,97 	"/>
	<polygon class="st4" points="140,108.6 129.8,118.8 119.6,108.6 119.6,176 99.3,176 99.1,175.8 91.3,168 89.6,166.3 87.9,168 
		80.2,175.8 80,176 59.7,176 59.7,108.6 49.5,118.8 39.3,108.6 59.7,88.2 84,88.2 87.1,93.7 79.2,140.1 89.9,150.8 100.6,140.1 
		92.7,93.7 95.8,88.2 119.5,88.2 119.5,88.2 119.6,88.2 	"/>
	<polygon class="st4" points="140.6,130.7 140.6,130.7 140.6,130.7 	"/>
	<path class="st6" d="M150,69.1c-7.9,0-14.4,6.4-14.4,14.4c0,7.9,6.4,14.4,14.4,14.4s14.4-6.4,14.4-14.4
		C164.4,75.6,158,69.1,150,69.1z M157.7,82.2c0-2-1.6-3.6-3.6-3.6c2,0,3.6-1.6,3.6-3.6c0,2,1.6,3.6,3.6,3.6
		C159.3,78.6,157.7,80.2,157.7,82.2z"/>
	<path class="st6" d="M164.9,75c0-2-1.6-3.6-3.6-3.6c2,0,3.6-1.6,3.6-3.6c0,2,1.6,3.6,3.6,3.6C166.5,71.4,164.9,73,164.9,75z"/>
	<path class="st6" d="M157.7,67.8c0-2-1.6-3.6-3.6-3.6c2,0,3.6-1.6,3.6-3.6c0,2,1.6,3.6,3.6,3.6C159.3,64.2,157.7,65.8,157.7,67.8z"
		/>
	<g class="st0">
		<polygon class="st2" points="149.4,131.3 153.1,127.6 149.4,105 145.7,127.6 		"/>
	</g>
	<polygon class="st6" points="174,112.1 168.9,117.1 163.9,112.1 163.9,145.3 153.9,145.3 153.8,145.2 150,141.4 149.2,140.6 
		148.3,141.4 144.5,145.2 144.4,145.3 134.4,145.3 134.4,112.1 129.4,117.1 124.3,112.1 134.4,102 146.4,102 147.9,104.8 144,127.6 
		149.3,132.9 154.6,127.6 150.7,104.8 152.2,102 163.9,102 163.9,102 163.9,102 	"/>
	<path class="st6" d="M30,69.1c-7.9,0-14.4,6.4-14.4,14.4c0,7.9,6.4,14.4,14.4,14.4c7.9,0,14.4-6.4,14.4-14.4
		C44.3,75.6,37.9,69.1,30,69.1z M37.6,82.2c0-2-1.6-3.6-3.6-3.6c2,0,3.6-1.6,3.6-3.6c0,2,1.6,3.6,3.6,3.6
		C39.2,78.6,37.6,80.2,37.6,82.2z"/>
	<path class="st6" d="M44.8,75c0-2-1.6-3.6-3.6-3.6c2,0,3.6-1.6,3.6-3.6c0,2,1.6,3.6,3.6,3.6C46.4,71.4,44.8,73,44.8,75z"/>
	<path class="st6" d="M37.6,67.8c0-2-1.6-3.6-3.6-3.6c2,0,3.6-1.6,3.6-3.6c0,2,1.6,3.6,3.6,3.6C39.2,64.2,37.6,65.8,37.6,67.8z"/>
	<g class="st0">
		<polygon class="st2" points="30.6,131.3 26.9,127.6 30.6,105 34.3,127.6 		"/>
	</g>
	<polygon class="st6" points="6,112.1 11.1,117.1 16.1,112.1 16.1,145.3 26.1,145.3 26.2,145.2 30,141.4 30.9,140.6 31.7,141.4 
		35.5,145.2 35.6,145.3 45.6,145.3 45.6,112.1 50.6,117.1 55.7,112.1 45.6,102 33.6,102 32.1,104.8 36,127.6 30.7,132.9 25.4,127.6 
		29.3,104.8 27.8,102 16.1,102 16.1,102 16.1,102 	"/>
</g>
<g id="leads" class="st0">
	<path class="st2" d="M135.9,27.4h-18.5c0.4,1.2,0.6,2.5,0.6,3.9c0,7.1-5.8,12.9-12.9,12.9H74.7c-7.1,0-12.9-5.8-12.9-12.9
		c0-1.4,0.2-2.7,0.6-3.9H45.1c-7.6,0-13.7,6.1-13.7,13.7v115.1c0,7.6,6.1,13.7,13.7,13.7h90.9c7.6,0,13.7-6.1,13.7-13.7V41.1
		C149.6,33.5,143.5,27.4,135.9,27.4z M139.8,146c0,6.3-5.1,11.4-11.4,11.4H52.7c-6.3,0-11.4-5.1-11.4-11.4V67.4
		c0-6.3,5.1-11.4,11.4-11.4h75.7c6.3,0,11.4,5.1,11.4,11.4L139.8,146L139.8,146z"/>
	<path class="st2" d="M65.2,81.6c0,1.6-1.3,3-3,3h-8c-1.6,0-3-1.3-3-3v-8c0-1.6,1.3-3,3-3h8c1.6,0,3,1.3,3,3V81.6z"/>
	<path class="st2" d="M128.5,81.6c0,1.6-1.3,3-3,3H73.1c-1.6,0-3-1.3-3-3v-8c0-1.6,1.3-3,3-3h52.4c1.6,0,3,1.3,3,3L128.5,81.6
		L128.5,81.6z"/>
	<path class="st2" d="M65.2,100.7c0,1.6-1.3,3-3,3h-8c-1.6,0-3-1.3-3-3v-8c0-1.6,1.3-3,3-3h8c1.6,0,3,1.3,3,3V100.7z"/>
	<path class="st2" d="M128.5,100.7c0,1.6-1.3,3-3,3H73.1c-1.6,0-3-1.3-3-3v-8c0-1.6,1.3-3,3-3h52.4c1.6,0,3,1.3,3,3L128.5,100.7
		L128.5,100.7z"/>
	<path class="st2" d="M65.2,119.9c0,1.6-1.3,3-3,3h-8c-1.6,0-3-1.3-3-3v-8c0-1.6,1.3-3,3-3h8c1.6,0,3,1.3,3,3V119.9z"/>
	<path class="st2" d="M128.5,119.9c0,1.6-1.3,3-3,3H73.1c-1.6,0-3-1.3-3-3v-8c0-1.6,1.3-3,3-3h52.4c1.6,0,3,1.3,3,3L128.5,119.9
		L128.5,119.9z"/>
	<path class="st2" d="M65.2,139c0,1.6-1.3,3-3,3h-8c-1.6,0-3-1.3-3-3v-8c0-1.6,1.3-3,3-3h8c1.6,0,3,1.3,3,3V139z"/>
	<path class="st2" d="M128.5,139c0,1.6-1.3,3-3,3H73.1c-1.6,0-3-1.3-3-3v-8c0-1.6,1.3-3,3-3h52.4c1.6,0,3,1.3,3,3L128.5,139
		L128.5,139z"/>
	<g class="st3">
		<path class="st4" d="M115.1,27.4c-1.6-4-5.4-6.8-9.9-6.8h-4.5c0-5.9-4.8-10.7-10.7-10.7c-5.9,0-10.7,4.8-10.7,10.7h-4.5
			c-4.5,0-8.4,2.8-9.9,6.8c-0.5,1.2-0.7,2.5-0.7,3.9c0,5.9,4.8,10.7,10.7,10.7h30.4c5.9,0,10.7-4.8,10.7-10.7
			C115.8,29.9,115.5,28.6,115.1,27.4z M89.9,19.3c-1.8,0-3.3-1.5-3.3-3.3s1.5-3.3,3.3-3.3c1.8,0,3.3,1.5,3.3,3.3
			C93.3,17.9,91.8,19.3,89.9,19.3z"/>
	</g>
</g>
<g id="projects" class="st0">
</g>
</svg>
