<?xml version="1.0" encoding="utf-8"?>
<!-- Generator: Adobe Illustrator 22.0.0, SVG Export Plug-In . SVG Version: 6.00 Build 0)  -->
<svg version="1.1" id="Layer_1" xmlns="http://www.w3.org/2000/svg" xmlns:xlink="http://www.w3.org/1999/xlink" x="0px" y="0px"
	 viewBox="0 0 180 180" style="enable-background:new 0 0 180 180;" xml:space="preserve">
<style type="text/css">
	.st0{display:none;}
	.st1{display:inline;fill:#4998D3;}
	.st2{display:inline;fill:#FFFFFF;}
	.st3{display:inline;}
	.st4{fill:#FFFFFF;}
	.st5{display:inline;fill:none;stroke:#FFFFFF;stroke-width:2;stroke-miterlimit:10;}
	.st6{fill:url(#SVGID_1_);}
	.st7{fill:url(#SVGID_2_);}
	.st8{fill:url(#SVGID_3_);}
	.st9{fill:url(#SVGID_4_);}
	.st10{fill:url(#SVGID_5_);}
	.st11{fill:url(#SVGID_6_);}
	.st12{fill:url(#SVGID_7_);}
	.st13{fill:url(#SVGID_8_);}
	.st14{fill:url(#SVGID_9_);}
	.st15{fill:url(#SVGID_10_);}
</style>
<g id="background" class="st0">
	<rect class="st1" width="180" height="180"/>
</g>
<g id="calendar" class="st0">
	<path class="st2" d="M162.2,63.5v80.7c0,6.1-4.9,11-11,11H28.8c-6.1,0-11-4.9-11-11V63.5H162.2z"/>
	<path class="st2" d="M162.2,45.9v10.9H17.8V45.9c0-6.1,4.9-11,11-11h7.3v-5.5c0-2.3,0.9-4.5,2.5-6c1.5-1.5,3.7-2.5,6-2.5
		c4.7,0,8.5,3.8,8.5,8.5v5.5h73.8v-5.5c0-2.3,0.9-4.5,2.5-6c1.5-1.5,3.7-2.5,6-2.5c4.7,0,8.5,3.8,8.5,8.5v5.5h7.3
		C157.3,34.9,162.2,39.8,162.2,45.9z"/>
</g>
<g id="analytics" class="st0">
	<g class="st3">
		<polygon class="st4" points="161.8,155.5 161.8,162.6 18.2,162.6 18.2,18 25.3,18 25.3,155.5 		"/>
	</g>
	<circle class="st2" cx="40.3" cy="145.1" r="5"/>
	<circle class="st2" cx="59.7" cy="108.7" r="5"/>
	<circle class="st2" cx="79.1" cy="135.8" r="5"/>
	<circle class="st2" cx="98.5" cy="76.5" r="5"/>
	<circle class="st2" cx="117.9" cy="108.7" r="5"/>
	<circle class="st2" cx="137.3" cy="61.6" r="5"/>
	<circle class="st2" cx="156.8" cy="40.6" r="5"/>
	<polyline class="st5" points="40.3,145.1 40.3,145.1 59.7,108.7 79.1,135.8 98.5,76.5 117.9,108.7 137.3,61.6 156.7,40.6 	"/>
</g>
<g id="employees" class="st0">
	<path class="st2" d="M91.5,36.2c-13,0-23.6,10.5-23.6,23.6c0,13,10.5,23.6,23.6,23.6c13,0,23.6-10.6,23.6-23.6
		C115.1,46.7,104.5,36.2,91.5,36.2z M104.1,57.5c0-3.3-2.6-5.9-5.9-5.9c3.3,0,5.9-2.6,5.9-5.9c0,3.3,2.6,5.9,5.9,5.9
		C106.7,51.6,104.1,54.2,104.1,57.5z"/>
	<path class="st2" d="M115.9,45.7c0-3.3-2.6-5.9-5.9-5.9c3.3,0,5.9-2.6,5.9-5.9c0,3.3,2.6,5.9,5.9,5.9
		C118.5,39.8,115.9,42.4,115.9,45.7z"/>
	<path class="st2" d="M104.1,33.9c0-3.3-2.6-5.9-5.9-5.9c3.3,0,5.9-2.6,5.9-5.9c0,3.3,2.6,5.9,5.9,5.9
		C106.7,28,104.1,30.6,104.1,33.9z"/>
	<g class="st3">
		<polygon class="st4" points="90.5,138 96.5,131.9 90.5,94.9 84.4,132 		"/>
	</g>
	<polygon class="st2" points="60.8,97.2 60.8,97.2 60.8,97.1 	"/>
	<polygon class="st2" points="130.7,106.5 122.5,114.8 114.2,106.5 114.2,160.9 97.8,160.9 97.7,160.7 91.4,154.5 90.1,153.1 
		88.7,154.5 82.4,160.7 82.3,160.9 65.9,160.9 65.9,106.5 57.7,114.7 49.4,106.5 65.9,90 85.6,90 88.1,94.5 81.6,131.9 90.3,140.6 
		99,131.9 92.5,94.5 95,90 114.2,90 114.2,90 114.2,90 	"/>
	<polygon class="st2" points="131.2,124.4 131.2,124.4 131.2,124.4 	"/>
	<path class="st2" d="M146.9,82c-7.5,0-13.6,6.1-13.6,13.6s6.1,13.6,13.6,13.6c7.5,0,13.6-6.1,13.6-13.6
		C160.5,88.1,154.4,82,146.9,82z M154.2,94.3c0-1.9-1.5-3.4-3.4-3.4c1.9,0,3.4-1.5,3.4-3.4c0,1.9,1.5,3.4,3.4,3.4
		C155.7,90.9,154.2,92.5,154.2,94.3z"/>
	<path class="st2" d="M161,87.5c0-1.9-1.5-3.4-3.4-3.4c1.9,0,3.4-1.5,3.4-3.4c0,1.9,1.5,3.4,3.4,3.4C162.5,84.1,161,85.6,161,87.5z"
		/>
	<path class="st2" d="M154.2,80.7c0-1.9-1.5-3.4-3.4-3.4c1.9,0,3.4-1.5,3.4-3.4c0,1.9,1.5,3.4,3.4,3.4
		C155.7,77.3,154.2,78.8,154.2,80.7z"/>
	<g class="st3">
		<polygon class="st4" points="146.3,140.9 149.8,137.4 146.3,116 142.8,137.4 		"/>
	</g>
	<polygon class="st2" points="169.6,122.7 164.8,127.5 160,122.7 160,154.1 150.6,154.1 150.5,154 146.9,150.4 146.1,149.6 
		145.3,150.4 141.6,154 141.6,154.1 132.1,154.1 132.1,122.7 127.3,127.5 122.6,122.7 132.1,113.2 143.5,113.2 144.9,115.7 
		141.2,137.4 146.2,142.4 151.2,137.4 147.5,115.7 148.9,113.2 160,113.2 160,113.2 160,113.2 	"/>
	<path class="st2" d="M33.2,82c-7.5,0-13.6,6.1-13.6,13.6s6.1,13.6,13.6,13.6c7.5,0,13.6-6.1,13.6-13.6C46.8,88.1,40.7,82,33.2,82z
		 M40.5,94.3c0-1.9-1.5-3.4-3.4-3.4c1.9,0,3.4-1.5,3.4-3.4c0,1.9,1.5,3.4,3.4,3.4C42,90.9,40.5,92.5,40.5,94.3z"/>
	<path class="st2" d="M47.3,87.5c0-1.9-1.5-3.4-3.4-3.4c1.9,0,3.4-1.5,3.4-3.4c0,1.9,1.5,3.4,3.4,3.4C48.8,84.1,47.3,85.6,47.3,87.5
		z"/>
	<path class="st2" d="M40.5,80.7c0-1.9-1.5-3.4-3.4-3.4c1.9,0,3.4-1.5,3.4-3.4c0,1.9,1.5,3.4,3.4,3.4C42,77.3,40.5,78.8,40.5,80.7z"
		/>
	<g class="st3">
		<polygon class="st4" points="33.8,140.9 30.3,137.4 33.8,116 37.3,137.4 		"/>
	</g>
	<polygon class="st2" points="10.6,122.7 15.3,127.5 20.1,122.7 20.1,154.1 29.6,154.1 29.7,154 33.3,150.4 34.1,149.6 34.9,150.4 
		38.5,154 38.6,154.1 48,154.1 48,122.7 52.8,127.5 57.6,122.7 48,113.2 36.7,113.2 35.2,115.7 38.9,137.4 33.9,142.4 28.9,137.4 
		32.6,115.7 31.2,113.2 20.1,113.2 20.1,113.2 20.1,113.2 	"/>
</g>
<g id="leads">
	<linearGradient id="SVGID_1_" gradientUnits="userSpaceOnUse" x1="46.929" y1="89.748" x2="134.073" y2="89.748">
		<stop  offset="0" style="stop-color:#FFFFFF"/>
		<stop  offset="0" style="stop-color:#008BE8"/>
		<stop  offset="1" style="stop-color:#0A669B"/>
		<stop  offset="1" style="stop-color:#000000"/>
	</linearGradient>
	<path class="st6" d="M124,37.2h-13.6c0.3,0.9,0.4,1.9,0.4,2.9c0,5.3-4.3,9.5-9.5,9.5H78.9c-5.3,0-9.5-4.3-9.5-9.5
		c0-1,0.2-2,0.4-2.9H57c-5.6,0-10.1,4.5-10.1,10.1v84.8c0,5.6,4.5,10.1,10.1,10.1H124c5.6,0,10.1-4.5,10.1-10.1V47.3
		C134.1,41.7,129.6,37.2,124,37.2z M126.8,124.6c0,4.6-3.8,8.4-8.4,8.4H62.6c-4.6,0-8.4-3.8-8.4-8.4V66.7c0-4.7,3.8-8.4,8.4-8.4
		h55.8c4.6,0,8.4,3.8,8.4,8.4L126.8,124.6L126.8,124.6z"/>
	<linearGradient id="SVGID_2_" gradientUnits="userSpaceOnUse" x1="61.615" y1="74.2135" x2="71.87" y2="74.2135">
		<stop  offset="0" style="stop-color:#FFFFFF"/>
		<stop  offset="0" style="stop-color:#008BE8"/>
		<stop  offset="1" style="stop-color:#0A669B"/>
		<stop  offset="1" style="stop-color:#000000"/>
	</linearGradient>
	<path class="st7" d="M71.9,77.1c0,1.2-1,2.2-2.2,2.2h-5.9c-1.2,0-2.2-1-2.2-2.2v-5.9c0-1.2,1-2.2,2.2-2.2h5.9c1.2,0,2.2,1,2.2,2.2
		V77.1z"/>
	<linearGradient id="SVGID_3_" gradientUnits="userSpaceOnUse" x1="75.486" y1="74.2135" x2="118.493" y2="74.2135">
		<stop  offset="0" style="stop-color:#FFFFFF"/>
		<stop  offset="0" style="stop-color:#008BE8"/>
		<stop  offset="1" style="stop-color:#0A669B"/>
		<stop  offset="1" style="stop-color:#000000"/>
	</linearGradient>
	<path class="st8" d="M118.5,77.1c0,1.2-1,2.2-2.2,2.2H77.7c-1.2,0-2.2-1-2.2-2.2v-5.9c0-1.2,1-2.2,2.2-2.2h38.6
		c1.2,0,2.2,1,2.2,2.2V77.1L118.5,77.1z"/>
	<linearGradient id="SVGID_4_" gradientUnits="userSpaceOnUse" x1="61.615" y1="88.316" x2="71.87" y2="88.316">
		<stop  offset="0" style="stop-color:#FFFFFF"/>
		<stop  offset="0" style="stop-color:#008BE8"/>
		<stop  offset="1" style="stop-color:#0A669B"/>
		<stop  offset="1" style="stop-color:#000000"/>
	</linearGradient>
	<path class="st9" d="M71.9,91.2c0,1.2-1,2.2-2.2,2.2h-5.9c-1.2,0-2.2-1-2.2-2.2v-5.9c0-1.2,1-2.2,2.2-2.2h5.9c1.2,0,2.2,1,2.2,2.2
		V91.2z"/>
	<linearGradient id="SVGID_5_" gradientUnits="userSpaceOnUse" x1="75.486" y1="88.316" x2="118.493" y2="88.316">
		<stop  offset="0" style="stop-color:#FFFFFF"/>
		<stop  offset="0" style="stop-color:#008BE8"/>
		<stop  offset="1" style="stop-color:#0A669B"/>
		<stop  offset="1" style="stop-color:#000000"/>
	</linearGradient>
	<path class="st10" d="M118.5,91.2c0,1.2-1,2.2-2.2,2.2H77.7c-1.2,0-2.2-1-2.2-2.2v-5.9c0-1.2,1-2.2,2.2-2.2h38.6
		c1.2,0,2.2,1,2.2,2.2V91.2L118.5,91.2z"/>
	<linearGradient id="SVGID_6_" gradientUnits="userSpaceOnUse" x1="61.615" y1="102.421" x2="71.87" y2="102.421">
		<stop  offset="0" style="stop-color:#FFFFFF"/>
		<stop  offset="0" style="stop-color:#008BE8"/>
		<stop  offset="1" style="stop-color:#0A669B"/>
		<stop  offset="1" style="stop-color:#000000"/>
	</linearGradient>
	<path class="st11" d="M71.9,105.3c0,1.2-1,2.2-2.2,2.2h-5.9c-1.2,0-2.2-1-2.2-2.2v-5.9c0-1.2,1-2.2,2.2-2.2h5.9
		c1.2,0,2.2,1,2.2,2.2V105.3z"/>
	<linearGradient id="SVGID_7_" gradientUnits="userSpaceOnUse" x1="75.486" y1="102.421" x2="118.493" y2="102.421">
		<stop  offset="0" style="stop-color:#FFFFFF"/>
		<stop  offset="0" style="stop-color:#008BE8"/>
		<stop  offset="1" style="stop-color:#0A669B"/>
		<stop  offset="1" style="stop-color:#000000"/>
	</linearGradient>
	<path class="st12" d="M118.5,105.3c0,1.2-1,2.2-2.2,2.2H77.7c-1.2,0-2.2-1-2.2-2.2v-5.9c0-1.2,1-2.2,2.2-2.2h38.6
		c1.2,0,2.2,1,2.2,2.2V105.3L118.5,105.3z"/>
	<linearGradient id="SVGID_8_" gradientUnits="userSpaceOnUse" x1="61.615" y1="116.524" x2="71.87" y2="116.524">
		<stop  offset="0" style="stop-color:#FFFFFF"/>
		<stop  offset="0" style="stop-color:#008BE8"/>
		<stop  offset="1" style="stop-color:#0A669B"/>
		<stop  offset="1" style="stop-color:#000000"/>
	</linearGradient>
	<path class="st13" d="M71.9,119.5c0,1.2-1,2.2-2.2,2.2h-5.9c-1.2,0-2.2-1-2.2-2.2v-5.9c0-1.2,1-2.2,2.2-2.2h5.9
		c1.2,0,2.2,1,2.2,2.2V119.5z"/>
	<linearGradient id="SVGID_9_" gradientUnits="userSpaceOnUse" x1="75.486" y1="116.524" x2="118.493" y2="116.524">
		<stop  offset="0" style="stop-color:#FFFFFF"/>
		<stop  offset="0" style="stop-color:#008BE8"/>
		<stop  offset="1" style="stop-color:#0A669B"/>
		<stop  offset="1" style="stop-color:#000000"/>
	</linearGradient>
	<path class="st14" d="M118.5,119.5c0,1.2-1,2.2-2.2,2.2H77.7c-1.2,0-2.2-1-2.2-2.2v-5.9c0-1.2,1-2.2,2.2-2.2h38.6
		c1.2,0,2.2,1,2.2,2.2V119.5L118.5,119.5z"/>
	<g>
		<linearGradient id="SVGID_10_" gradientUnits="userSpaceOnUse" x1="71.041" y1="36.1725" x2="109.124" y2="36.1725">
			<stop  offset="0" style="stop-color:#FFFFFF"/>
			<stop  offset="0" style="stop-color:#008BE8"/>
			<stop  offset="1" style="stop-color:#0A669B"/>
			<stop  offset="1" style="stop-color:#000000"/>
		</linearGradient>
		<path class="st15" d="M108.6,37.2c-1.2-2.9-4-5-7.3-5h-3.3c0-4.3-3.5-7.8-7.8-7.8c-4.3,0-7.8,3.5-7.8,7.8h-3.3
			c-3.3,0-6.2,2.1-7.3,5c-0.4,0.9-0.5,1.9-0.5,2.9c0,4.3,3.5,7.8,7.8,7.8h22.4c4.3,0,7.9-3.5,7.9-7.8
			C109.1,39.1,108.9,38.1,108.6,37.2z M90.1,31.3c-1.4,0-2.5-1.1-2.5-2.5s1.1-2.5,2.5-2.5c1.4,0,2.5,1.1,2.5,2.5
			C92.5,30.2,91.4,31.3,90.1,31.3z"/>
	</g>
</g>
<g id="projects" class="st0">
</g>
</svg>
